<?xml version="1.0" standalone="no"?>
<!DOCTYPE svg PUBLIC "-//W3C//DTD SVG 20010904//EN"
 "http://www.w3.org/TR/2001/REC-SVG-20010904/DTD/svg10.dtd">
<svg version="1.0" xmlns="http://www.w3.org/2000/svg"
 width="1920.000000pt" height="1920.000000pt" viewBox="0 0 1920.000000 1920.000000"
 preserveAspectRatio="xMidYMid meet">
<metadata>
Created by potrace 1.15, written by Peter Selinger 2001-2017
</metadata>
<g transform="translate(0.000000,1920.000000) scale(0.100000,-0.100000)"
fill="#000000" stroke="none">
<path d="M0 18371 l0 -829 103 43 c56 23 154 67 217 97 63 31 135 62 160 69
25 7 99 43 166 81 66 38 181 93 254 123 73 31 217 95 319 144 102 49 233 105
291 126 90 32 235 96 345 152 167 85 236 117 335 153 63 24 163 65 222 91 120
55 190 63 255 32 54 -25 66 -65 58 -182 -4 -53 -6 -181 -5 -286 2 -155 -1
-197 -14 -230 -12 -31 -14 -51 -8 -87 l9 -46 -52 -55 c-41 -43 -65 -58 -114
-74 l-63 -21 -32 46 c-17 25 -35 49 -41 54 -23 20 -101 68 -111 68 -25 0 -74
67 -83 114 -5 26 -14 53 -20 59 -11 11 -210 29 -221 20 -9 -8 -25 -717 -18
-782 6 -47 4 -70 -7 -91 -20 -40 -71 -74 -129 -90 -54 -15 -44 -21 -109 60
-24 28 -76 24 -133 -12 -25 -16 -61 -27 -102 -31 -81 -9 -176 -49 -284 -120
-99 -65 -238 -137 -265 -137 -10 0 -43 -13 -74 -29 -33 -16 -80 -30 -116 -34
-72 -8 -141 -37 -241 -101 -86 -56 -243 -136 -266 -136 -9 0 -38 -11 -64 -24
-26 -13 -73 -27 -105 -30 l-57 -7 0 -160 c0 -87 3 -159 8 -159 4 0 25 23 47
52 90 117 120 142 239 201 62 31 121 57 130 57 33 0 85 -29 120 -66 20 -21 37
-42 37 -46 1 -4 2 -14 3 -20 4 -24 -23 -65 -57 -88 -19 -13 -42 -37 -52 -52
-23 -40 -71 -71 -140 -93 -33 -10 -85 -37 -115 -59 -64 -47 -148 -78 -190 -69
l-30 6 0 -152 c0 -83 2 -151 5 -151 6 0 20 8 123 74 44 29 112 60 175 80 57
18 127 45 157 59 30 14 96 34 145 44 89 19 136 41 215 104 19 15 76 42 126 58
108 36 135 48 194 83 25 14 86 38 135 52 50 15 107 32 128 38 21 6 74 33 119
59 100 59 235 104 286 95 39 -6 66 -31 57 -54 -3 -8 -5 -24 -5 -37 0 -23 -92
-135 -112 -135 -5 0 -28 -9 -51 -19 -24 -11 -90 -31 -147 -46 -157 -39 -365
-125 -491 -202 -60 -37 -161 -74 -267 -98 -37 -9 -94 -29 -127 -45 -33 -16
-102 -47 -154 -69 -52 -23 -115 -55 -142 -71 -52 -34 -181 -81 -274 -100 -33
-7 -68 -16 -78 -22 -16 -8 -17 -50 -15 -706 l3 -697 23 -3 c62 -9 135 41 207
143 35 49 53 64 85 74 22 6 56 23 76 36 19 13 58 29 87 35 47 11 59 10 126
-14 41 -14 84 -35 96 -46 43 -40 98 -13 143 68 42 77 134 190 160 197 15 3 46
20 69 36 24 16 63 39 87 50 52 23 78 19 146 -21 25 -15 65 -34 90 -44 79 -30
93 -18 191 158 48 85 93 136 120 136 10 0 59 16 109 35 50 19 96 35 100 35 5
0 34 -22 65 -49 61 -54 137 -81 172 -63 33 19 71 66 113 141 95 173 153 213
237 161 53 -32 66 -69 71 -210 3 -109 1 -131 -16 -171 -39 -89 -123 -129 -245
-118 -64 6 -81 4 -156 -22 -61 -21 -97 -41 -133 -74 -118 -106 -162 -132 -262
-155 -84 -19 -104 -20 -169 -10 -64 9 -80 9 -118 -6 -57 -22 -123 -67 -179
-122 -79 -76 -128 -105 -204 -118 -97 -18 -154 -17 -209 2 -43 14 -51 14 -93
0 -48 -16 -99 -52 -180 -127 -76 -71 -138 -106 -197 -114 -29 -4 -65 -14 -81
-22 -23 -12 -48 -14 -108 -9 -85 7 -169 -10 -208 -42 l-20 -17 2 -1241 3
-1242 100 33 c192 65 542 175 611 193 132 36 282 81 824 249 80 25 247 79 371
121 l227 76 36 -24 c59 -41 81 -97 82 -215 0 -56 -5 -124 -13 -154 -14 -54
-13 -82 9 -210 12 -74 5 -186 -18 -283 -15 -62 -15 -72 0 -139 9 -39 16 -83
16 -97 0 -49 -77 -122 -128 -122 -21 0 -258 113 -282 135 -8 7 -44 19 -80 25
-84 16 -115 29 -167 73 -50 41 -129 75 -143 61 -6 -6 -12 -118 -15 -249 -19
-889 -22 -970 -46 -1021 -34 -71 -65 -66 -166 28 -77 72 -131 62 -179 -33 -13
-27 -32 -52 -41 -57 -10 -5 -79 -26 -153 -47 -132 -37 -135 -37 -215 -26 -78
12 -83 12 -215 -24 -195 -52 -350 -95 -387 -106 l-33 -11 0 -194 c0 -179 4
-207 24 -186 4 4 35 16 69 28 33 11 64 27 68 35 4 8 19 39 33 70 33 71 60 86
250 134 l149 38 19 -23 c30 -38 32 -69 10 -185 -12 -60 -25 -130 -28 -154 -6
-40 -39 -90 -104 -156 -24 -25 -25 -32 -5 -52 25 -24 6 -53 -23 -35 -30 20
-20 86 19 128 16 17 18 26 10 46 -13 34 -67 78 -97 78 -21 0 -30 -11 -59 -75
-30 -66 -38 -75 -61 -75 -16 0 -44 14 -70 35 -41 34 -44 35 -123 32 l-81 -2 0
-214 0 -213 28 7 c15 3 59 26 97 50 39 23 100 57 138 74 l67 31 56 -16 c61
-17 69 -17 194 16 47 12 120 28 163 36 63 11 95 23 161 64 45 27 86 50 91 50
6 0 28 9 50 21 31 17 47 20 79 14 56 -11 127 -12 151 -3 17 7 25 0 44 -35 34
-63 23 -78 -91 -116 -51 -16 -163 -46 -248 -66 -169 -40 -499 -127 -541 -144
-15 -5 -112 -28 -215 -51 -104 -23 -197 -44 -206 -46 -17 -5 -18 -49 -18 -745
0 -613 2 -739 13 -739 8 0 29 8 48 17 20 11 59 18 94 19 33 1 72 2 87 3 14 0
59 23 100 50 l73 49 41 -24 41 -24 26 32 c78 99 103 119 173 143 69 24 69 24
94 5 43 -34 118 -70 145 -70 31 0 132 66 178 116 36 40 85 64 129 64 16 0 53
11 81 24 69 33 200 45 225 23 49 -44 140 -59 192 -32 36 18 103 63 110 74 3 4
26 22 52 41 27 18 55 44 63 57 9 12 21 23 27 23 6 0 20 8 30 17 23 21 31 12
52 -51 32 -94 28 -258 -6 -292 -25 -25 -244 -79 -418 -104 -47 -6 -130 -23
-185 -37 -169 -43 -314 -30 -340 30 -8 18 -18 22 -50 22 -137 -2 -273 -33
-317 -73 -14 -13 -36 -50 -48 -82 -12 -32 -29 -62 -38 -66 -10 -3 -50 -8 -89
-10 -40 -2 -87 -10 -103 -19 -27 -14 -76 -27 -152 -40 -73 -13 -99 -17 -170
-26 -43 -5 -88 -11 -100 -13 -13 -3 -31 -5 -40 -5 -17 -1 -18 -85 -18 -1611
l0 -1610 58 -1 c109 -1 182 -8 199 -19 14 -8 -1 -10 -60 -9 -74 2 -80 0 -104
-25 -20 -22 -32 -27 -59 -24 l-34 4 0 -49 0 -49 36 6 c20 4 41 3 48 -3 9 -8
28 -5 67 9 30 11 113 27 184 36 72 8 159 22 195 29 90 20 309 47 325 41 7 -2
37 2 67 9 70 18 277 46 319 44 19 -2 43 2 54 8 11 6 43 13 70 17 298 40 276
38 296 17 10 -10 22 -21 27 -22 6 -3 6 -27 1 -59 -4 -30 -8 -90 -8 -132 -1
-76 -1 -77 -36 -104 -47 -35 -47 -71 -2 -100 l33 -22 -7 -68 c-4 -38 -10 -148
-14 -244 -6 -136 -11 -179 -23 -192 -14 -16 -13 -22 3 -57 19 -44 18 -153 -4
-205 l-11 -29 -83 8 c-45 4 -125 11 -177 17 -188 18 -250 21 -250 9 0 -7 -20
-11 -49 -11 -39 0 -53 5 -64 21 -16 21 -97 38 -188 39 -75 0 -76 -1 -89 -270
-6 -129 -17 -365 -25 -525 -8 -159 -19 -384 -25 -500 -13 -289 -21 -384 -30
-390 -5 -3 -30 -8 -57 -12 l-48 -6 19 22 c11 11 25 21 31 21 26 0 25 32 -3 59
-23 24 -39 29 -102 35 -41 3 -98 2 -126 -3 -28 -6 -118 -15 -200 -21 -82 -6
-150 -13 -153 -16 -11 -11 10 -12 84 -4 163 17 270 22 260 12 -8 -8 -250 -32
-324 -32 l-21 0 0 -440 0 -440 4816 0 4817 0 -7 72 c-18 215 -147 1659 -156
1748 -6 58 -21 218 -35 355 -28 284 -40 420 -55 620 -14 177 -79 845 -85 865
-6 23 3 -115 31 -445 14 -165 29 -354 34 -420 6 -66 14 -149 19 -185 11 -80
34 -420 29 -426 -3 -2 -10 44 -17 103 -7 59 -16 112 -21 118 -9 11 -42 325
-60 575 -6 80 -15 181 -20 225 -5 44 -15 141 -20 215 -10 123 -21 241 -65 655
-8 77 -17 170 -21 208 -3 39 -12 73 -21 82 -22 23 -52 19 -57 -7 -3 -13 -9
-43 -14 -68 l-10 -45 -7 33 c-4 17 -12 32 -17 32 -5 0 -7 4 -3 9 3 5 -1 15 -8
23 -8 7 -12 18 -10 24 5 14 -60 64 -84 64 -21 0 -48 47 -59 100 -10 54 -44 65
-44 15 0 -37 -21 -77 -38 -70 -7 3 -24 5 -37 5 -20 0 -26 9 -45 73 -12 39 -23
78 -25 84 -9 29 -23 9 -39 -54 -9 -36 -18 -68 -20 -71 -3 -2 -22 0 -43 5 -30
7 -43 17 -61 51 -31 55 -70 76 -117 63 -22 -6 -37 -6 -41 0 -3 5 -17 8 -31 6
-47 -6 -56 -66 -49 -327 3 -124 9 -340 12 -480 5 -194 9 -259 20 -270 20 -23
44 -86 44 -116 0 -14 -13 -66 -30 -114 -16 -49 -32 -112 -36 -140 -4 -32 -16
-62 -29 -78 -22 -25 -23 -25 -48 -9 -16 10 -31 33 -38 59 -6 24 -14 54 -18 67
-4 14 -15 29 -24 35 -22 14 -32 -1 -41 -56 -6 -38 -35 -78 -58 -78 -6 0 -27
17 -47 38 l-36 38 -23 -28 c-13 -15 -33 -28 -44 -28 -21 0 -84 62 -126 123
-14 21 -30 36 -36 34 -6 -2 -21 -22 -34 -45 -19 -34 -29 -42 -51 -42 -16 0
-36 9 -47 21 -10 12 -45 40 -78 63 -130 92 -132 92 -173 9 l-27 -56 13 -111
c8 -72 14 -323 17 -716 5 -715 -5 -882 -59 -1013 -11 -25 -40 -44 -59 -39 -5
1 -8 -3 -8 -9 0 -8 -4 -8 -12 -1 -9 7 -23 5 -47 -7 -23 -13 -44 -16 -70 -11
-20 3 -47 3 -61 0 -14 -4 -34 -4 -45 0 -38 14 -538 -6 -568 -22 -10 -5 -21 -7
-24 -4 -3 3 -14 1 -24 -4 -25 -14 -169 -28 -169 -17 0 5 -7 6 -16 3 -8 -3 -13
-2 -10 3 5 8 -26 21 -64 27 -90 13 -118 15 -124 5 -4 -5 -13 -8 -21 -5 -7 3
-22 1 -32 -5 -24 -12 -32 -7 -70 54 -39 63 -59 121 -88 265 -42 204 -67 296
-76 272 -10 -26 -26 -183 -34 -327 -8 -162 -15 -225 -28 -274 -10 -37 -19 -47
-60 -67 -26 -14 -47 -21 -47 -18 0 4 -7 1 -15 -6 -11 -9 -45 -13 -103 -11
-152 2 -223 2 -377 -3 -165 -5 -206 -9 -281 -31 -28 -8 -66 -14 -86 -13 -19 1
-40 -2 -46 -6 -6 -3 -13 -2 -17 4 -4 6 -11 8 -16 5 -5 -4 -12 0 -15 8 -6 16
-99 51 -113 43 -10 -6 -82 -18 -129 -21 -26 -1 -37 4 -53 26 -10 15 -19 31
-19 37 0 5 -9 38 -20 73 -47 146 -59 345 -61 984 -1 490 -7 634 -29 658 -4 5
-24 -6 -44 -24 -42 -36 -42 -36 -444 -89 -128 -17 -243 -35 -256 -40 -19 -7
-22 -15 -20 -52 2 -50 -9 -48 169 -22 458 70 502 73 532 45 l22 -21 -5 -472
c-6 -498 -15 -713 -32 -730 -7 -7 -18 -5 -33 6 -32 22 -49 20 -81 -11 l-27
-26 -45 24 -45 24 -28 -27 c-26 -24 -30 -25 -53 -13 -14 8 -32 14 -41 15 -28
0 -50 -34 -48 -76 3 -75 -20 -238 -36 -250 -13 -10 -13 -16 0 -54 8 -23 15
-48 15 -55 0 -9 -33 -15 -112 -20 -62 -4 -121 -9 -133 -12 -32 -8 -85 -3 -145
12 -30 7 -84 16 -120 20 -89 8 -104 13 -90 30 6 8 25 17 41 20 57 13 86 86 50
129 -9 10 -5 16 18 25 20 9 34 26 46 56 15 40 15 46 1 74 -9 16 -20 33 -26 36
-17 10 -193 -15 -217 -31 -13 -8 -30 -28 -39 -46 -15 -29 -15 -34 1 -62 10
-17 25 -37 34 -44 15 -12 14 -14 -2 -23 -10 -6 -22 -22 -27 -35 -9 -24 -11
-24 -34 -9 -16 11 -43 15 -78 14 -30 -1 -60 1 -67 5 -22 14 8 33 60 38 59 6
70 18 67 73 l-3 40 -69 -2 c-37 -2 -74 -7 -81 -13 -26 -21 -30 57 -27 540 3
546 6 658 19 671 5 5 110 25 233 44 200 32 266 45 217 45 -11 0 -17 8 -17 24
0 14 -4 28 -10 31 -6 3 -10 -5 -10 -19 0 -27 -15 -42 -25 -26 -5 8 -11 7 -21
-1 -11 -9 -19 -6 -39 15 -13 14 -33 26 -43 26 -26 0 -46 -25 -39 -50 3 -13 0
-20 -9 -20 -8 0 -17 13 -20 30 -4 17 -10 30 -15 30 -5 0 -9 -13 -9 -30 0 -38
-18 -40 -22 -3 -2 20 -9 29 -25 31 -17 3 -21 0 -17 -12 8 -20 -5 -20 -30 -1
-24 18 -67 20 -84 3 -9 -9 -13 -7 -18 5 -10 26 4 67 34 97 24 23 42 29 147 44
66 10 158 24 205 32 205 34 465 74 586 90 l131 17 6 171 c4 94 7 320 7 501 0
182 3 361 7 398 8 90 19 97 149 101 121 4 416 41 443 56 11 5 33 10 50 10 16
0 33 5 36 10 3 6 45 10 93 10 91 0 425 49 502 74 65 21 203 39 238 31 17 -3
48 -2 69 4 51 13 155 28 287 41 61 6 119 16 130 22 33 18 91 28 221 37 156 12
434 56 511 81 33 11 72 20 87 20 14 0 45 10 67 21 32 17 51 20 87 15 61 -8 91
1 108 34 22 43 115 54 115 14 0 -8 7 -17 14 -20 29 -11 244 28 370 68 110 34
138 40 185 35 55 -6 98 3 148 31 12 7 26 12 32 12 5 0 22 5 38 12 27 11 27 11
-26 19 -31 4 -61 15 -73 26 -17 18 -17 22 -4 54 12 30 12 42 0 89 -8 30 -14
75 -14 101 0 38 -4 48 -20 52 -17 4 -20 15 -22 83 l-3 77 -57 12 c-65 13 -93
33 -107 79 -21 64 -42 207 -36 238 4 18 9 57 12 86 4 35 12 57 24 65 23 17 40
56 54 130 l12 57 -54 80 c-29 43 -66 104 -82 134 -32 58 -65 159 -59 177 7 22
128 -123 180 -216 29 -52 57 -95 61 -95 19 0 19 47 3 244 -21 256 -35 317 -90
421 -82 152 -132 300 -177 525 -11 58 -28 112 -36 121 -19 22 -65 198 -70 270
-3 40 0 66 12 88 19 38 69 71 108 71 34 0 34 13 1 39 -55 43 -113 64 -166 59
-61 -6 -126 8 -154 34 -16 15 -23 16 -26 6 -4 -9 -27 -13 -77 -12 -62 0 -75 4
-114 32 -62 44 -83 47 -194 22 -167 -38 -187 -70 -43 -70 48 0 95 -3 103 -6
19 -7 -114 -134 -140 -134 -10 0 -30 -6 -44 -14 -20 -10 -72 -13 -217 -11
-105 2 -196 6 -202 10 -6 4 -17 -1 -25 -11 -11 -16 -15 -16 -30 -4 -9 8 -36
15 -60 16 -24 2 -66 13 -94 25 -58 24 -63 25 -198 12 -108 -11 -153 -29 -153
-62 0 -30 54 -42 180 -39 l114 3 8 -35 c14 -63 3 -95 -42 -113 -40 -16 -48
-32 -31 -65 31 -60 51 -185 32 -197 -6 -3 -9 -24 -8 -46 1 -32 -4 -44 -22 -59
-15 -11 -32 -15 -45 -11 -182 58 -195 63 -201 81 -3 11 -26 28 -50 39 -35 15
-50 30 -66 65 -21 43 -22 45 -5 71 10 15 14 31 9 35 -4 5 -48 21 -98 36 -116
34 -230 42 -314 20 -80 -21 -127 -21 -135 0 -4 11 6 20 37 34 23 11 49 20 57
20 26 1 -33 29 -62 30 -14 0 -55 -9 -90 -20 -86 -27 -106 -26 -114 6 -6 24 -9
25 -50 19 -63 -9 -106 2 -147 40 -43 40 -46 53 -12 60 14 3 36 7 49 10 13 3
34 13 47 24 22 18 16 17 -116 -6 -172 -30 -224 -28 -242 7 -10 19 -13 138 -13
496 l0 471 28 30 c51 53 51 143 1 127 -19 -5 -24 9 -38 112 -12 80 -5 94 45
94 33 0 34 -2 27 -27 -10 -41 -7 -57 21 -101 20 -31 38 -45 81 -61 31 -12 70
-31 86 -44 29 -21 30 -24 24 -74 -7 -60 0 -65 46 -30 40 29 109 29 175 0 27
-12 83 -35 124 -51 69 -27 76 -32 88 -68 16 -49 28 -62 43 -47 6 6 26 9 45 6
19 -3 40 -1 48 6 11 9 15 6 21 -16 5 -23 23 -210 25 -273 1 -11 4 -10 15 4 19
26 19 80 0 96 -21 18 -20 99 1 107 9 3 19 0 24 -6 4 -8 10 5 14 30 9 58 21 69
71 69 28 0 47 6 59 19 21 24 50 17 65 -15 12 -27 29 -31 37 -9 7 16 45 36 108
56 36 11 41 10 57 -10 20 -25 40 -26 80 -5 17 8 36 13 42 11 7 -2 19 0 29 4
11 6 18 4 21 -6 3 -7 2 -15 -2 -17 -21 -8 -100 -132 -115 -182 -45 -143 20
-280 139 -294 130 -14 255 122 255 278 0 101 -67 204 -140 216 -76 13 -89 28
-51 60 24 21 130 57 147 50 7 -3 16 -1 19 5 12 18 25 -2 26 -39 1 -20 3 -30 6
-21 2 9 15 21 28 27 14 7 25 15 25 20 0 20 39 52 63 52 14 0 38 5 54 12 45 18
63 19 63 3 0 -8 4 -15 9 -15 14 0 23 -68 11 -90 -6 -11 -24 -27 -41 -35 -69
-36 -123 -175 -99 -258 25 -93 118 -143 197 -107 54 24 109 89 127 151 21 68
20 105 -3 155 -23 51 -63 82 -113 90 -21 4 -41 11 -44 16 -12 18 8 109 25 115
9 4 18 9 21 12 9 12 90 28 96 20 2 -4 11 -6 19 -3 8 3 21 -6 31 -23 10 -15 20
-30 22 -33 2 -3 8 3 13 12 14 26 67 48 114 48 23 0 44 -2 46 -5 3 -2 -20 -31
-52 -64 -78 -80 -101 -128 -107 -222 -4 -62 -1 -82 16 -115 39 -76 108 -117
186 -110 59 6 96 26 144 81 49 56 72 119 72 197 0 120 -66 208 -166 223 -27 4
-44 11 -44 20 0 24 51 75 74 75 12 0 31 7 42 15 10 8 34 15 52 15 17 0 32 5
32 12 0 6 3 9 6 6 6 -6 27 -230 39 -412 5 -66 11 -103 16 -95 12 19 11 109 -1
109 -13 0 -13 107 0 115 16 10 12 91 -5 105 -9 8 -15 30 -15 57 0 36 4 46 20
50 15 4 20 14 20 37 0 32 1 33 93 61 50 15 96 28 101 29 7 1 33 -91 36 -126 0
-3 -19 -18 -43 -31 -67 -39 -127 -145 -127 -221 1 -41 31 -105 64 -135 37 -34
118 -41 172 -13 76 39 123 119 124 209 0 101 -46 162 -135 181 -36 7 -40 11
-43 42 -6 55 13 76 77 89 31 6 67 14 80 18 17 4 22 3 17 -5 -5 -8 -2 -10 8 -6
11 4 19 -2 24 -17 l9 -23 11 21 c7 11 26 26 43 32 47 16 146 25 153 13 3 -6
-18 -27 -48 -47 -109 -72 -170 -220 -135 -326 30 -90 95 -139 183 -139 140 0
246 116 246 270 0 128 -71 217 -180 228 -44 4 -50 7 -50 28 0 27 39 60 83 70
18 3 41 13 52 20 22 16 63 18 84 5 13 -8 16 -32 45 -311 2 -25 2 25 0 110 -4
200 1 232 41 240 17 4 40 12 52 18 12 7 29 12 38 12 9 0 23 7 31 15 21 20 61
19 72 -2 5 -10 12 -44 16 -75 l6 -58 -33 -14 c-45 -18 -103 -88 -123 -149 -20
-60 -13 -139 14 -177 53 -71 128 -88 211 -45 80 40 124 117 125 217 1 61 -2
70 -36 118 -36 52 -37 53 -90 54 l-53 1 0 75 0 75 28 -3 c15 -2 34 2 42 8 9 7
20 8 32 2 10 -4 39 -8 66 -7 46 2 47 2 48 -29 l1 -31 10 30 c13 37 37 65 55
65 7 0 13 4 13 8 0 4 23 6 52 4 34 -2 54 1 60 10 6 10 10 10 18 -2 21 -32 11
-59 -27 -79 -86 -44 -149 -139 -159 -238 -9 -79 14 -139 71 -192 47 -44 104
-59 176 -47 140 22 241 200 199 350 -24 87 -108 155 -192 156 -36 0 -38 1 -38
34 0 32 4 37 53 60 77 38 168 60 179 44 13 -21 16 -41 38 -298 24 -283 36
-384 50 -409 5 -10 48 -37 95 -60 47 -23 85 -45 85 -49 0 -5 -33 -16 -73 -26
-63 -14 -80 -23 -113 -58 -21 -22 -34 -38 -28 -35 6 4 80 20 163 37 154 30
171 35 171 49 0 5 -48 30 -107 57 -120 53 -149 74 -158 113 -3 14 -7 87 -10
161 -3 74 -10 187 -15 250 -20 255 -12 320 38 320 31 0 86 21 100 38 6 9 12
30 13 46 0 17 3 25 6 19 2 -7 13 -13 23 -13 14 0 19 11 25 57 8 63 24 56 26
-12 0 -22 7 -71 14 -110 l13 -70 2 60 c4 124 5 130 21 133 9 2 23 -3 31 -10
17 -16 42 -22 33 -8 -9 14 18 13 33 -2 10 -10 15 -10 21 1 7 11 10 10 13 -5 3
-17 7 -16 34 11 17 17 29 36 27 42 -3 7 5 25 18 40 15 19 20 22 14 8 -4 -11
-9 -36 -11 -55 l-3 -35 14 40 c7 22 14 47 14 56 1 19 55 69 75 69 8 0 18 5 21
10 3 6 -3 10 -14 10 -12 0 -21 5 -21 11 0 5 4 7 10 4 5 -3 7 0 4 9 -5 12 20
28 48 31 3 0 10 3 14 8 4 4 18 7 32 7 21 0 24 -4 19 -27 -2 -16 -1 -37 3 -48
6 -13 9 2 9 47 1 37 5 69 9 72 5 3 7 18 6 35 -2 33 3 36 112 68 65 19 83 36
46 41 -18 3 -22 8 -17 20 4 9 12 35 18 57 13 52 27 71 38 53 6 -9 9 -6 9 9 0
29 -32 38 -108 30 l-57 -6 55 21 c71 27 80 35 80 69 0 32 -3 33 -70 19 -42 -9
-174 -21 -390 -36 -52 -3 -98 -10 -101 -16 -8 -12 -149 -2 -163 12 -6 6 -6 10
-1 9 6 -1 23 3 38 9 16 7 35 12 44 12 23 0 314 77 405 107 42 14 79 32 83 40
3 9 2 31 -1 50 -6 33 -9 35 -37 29 -16 -3 -33 -6 -38 -6 -5 0 -9 -7 -9 -15 0
-18 -31 -35 -63 -35 -33 0 -406 -80 -602 -129 -88 -22 -189 -47 -225 -56 -36
-9 -73 -20 -82 -26 -27 -14 -69 -10 -108 11 -41 22 -53 17 150 69 85 22 191
51 235 65 44 14 86 26 95 26 21 0 271 72 266 77 -9 9 -298 -52 -531 -113 -156
-41 -260 -63 -277 -60 -34 7 -58 -2 -58 -20 0 -8 -3 -14 -7 -14 -4 0 -92 -21
-196 -46 -104 -25 -210 -49 -235 -54 -26 -4 -81 -18 -122 -30 -170 -49 -421
-108 -442 -103 -18 4 -20 2 -9 -5 12 -9 9 -12 -15 -17 -16 -4 -81 -20 -146
-36 -64 -17 -158 -39 -210 -49 -51 -11 -201 -47 -333 -80 -302 -76 -286 -72
-500 -121 -99 -22 -236 -56 -305 -74 -142 -38 -240 -62 -565 -135 -126 -29
-313 -74 -415 -100 -232 -59 -271 -68 -345 -75 -33 -4 -102 -18 -153 -31 -101
-26 -259 -47 -275 -37 -5 3 1 14 14 24 l24 19 -25 0 c-24 0 -156 -26 -375 -75
-60 -14 -120 -25 -132 -25 -25 0 -37 27 -27 64 8 35 -2 33 -96 -16 -59 -31
-79 -46 -75 -58 3 -8 -6 -2 -20 13 -22 25 -25 37 -25 111 0 82 -1 84 -45 152
-25 37 -45 78 -45 90 0 12 9 52 21 89 l21 68 -59 59 -58 59 2 79 c0 43 9 105
18 137 20 70 71 153 94 153 9 0 26 3 38 6 17 5 25 -1 38 -26 14 -27 21 -31 43
-27 14 3 32 3 39 0 17 -7 17 -61 -3 -153 -9 -45 -16 -122 -15 -192 l0 -118
-31 -8 c-29 -7 -33 -13 -45 -67 -9 -41 -21 -67 -39 -83 l-26 -23 26 -40 c36
-53 65 -64 141 -50 58 11 61 10 80 -14 20 -24 60 -34 67 -17 2 5 26 23 53 42
28 19 58 44 68 57 10 13 25 23 32 23 8 0 19 9 25 20 7 12 36 27 83 40 39 11
83 25 97 31 20 9 27 7 41 -10 21 -26 40 -26 139 0 44 11 84 18 89 14 6 -3 46
3 90 15 44 11 91 20 106 20 27 0 84 26 145 66 45 29 135 67 228 94 40 12 71
25 70 28 -42 80 -78 159 -78 169 0 17 -10 17 -116 -7 -49 -11 -105 -20 -124
-20 -33 0 -33 1 -14 14 20 14 108 45 192 66 46 12 45 5 20 103 -8 32 -12 36
-24 27 -8 -7 -14 -19 -14 -26 0 -17 -40 -19 -40 -1 -1 7 -7 4 -15 -7 -8 -10
-21 -16 -29 -13 -8 3 -20 -1 -26 -9 -17 -19 -57 -18 -69 4 -9 14 -12 15 -20 3
-5 -7 -14 -10 -21 -6 -7 4 -13 -1 -17 -14 -8 -33 -17 -25 -37 33 -12 35 -16
64 -11 86 9 39 41 55 203 96 l113 29 6 38 c11 73 38 97 146 132 83 26 104 38
145 78 44 43 52 47 96 47 43 0 48 -2 43 -19 -4 -17 1 -20 42 -23 46 -3 46 -3
44 -38 -21 -309 -16 -372 42 -495 40 -87 52 -135 33 -136 -22 -1 -49 -7 -66
-15 -9 -4 -21 -8 -27 -10 -5 -1 -23 -8 -40 -15 -56 -23 -64 -21 -90 21 -35 55
-50 41 -18 -15 l25 -45 -28 -10 c-42 -16 -76 -4 -127 46 -34 34 -51 44 -66 39
-33 -10 -26 -82 11 -117 33 -32 62 -35 134 -14 27 8 67 17 89 20 22 3 67 14
100 26 33 12 85 22 115 22 63 1 75 5 145 62 38 32 77 51 151 74 55 18 105 32
111 32 6 0 23 4 38 10 l25 10 -30 42 c-17 23 -37 66 -46 95 -8 29 -19 55 -23
57 -4 3 -65 -8 -135 -25 -70 -16 -137 -29 -149 -29 -35 1 41 37 115 56 35 8
85 22 111 31 53 17 53 15 24 118 -9 33 -12 36 -15 17 -5 -30 -31 -40 -47 -18
-11 15 -13 14 -20 -11 -6 -26 -7 -27 -20 -10 -13 18 -14 18 -24 -1 -6 -11 -18
-22 -26 -26 -22 -8 -55 11 -55 31 0 14 -2 15 -17 1 -10 -9 -24 -13 -30 -11 -8
3 -13 -5 -13 -21 0 -35 -17 -33 -25 2 -4 19 -12 28 -26 29 -28 2 -32 8 -32 41
0 80 6 85 168 127 191 49 172 39 184 96 17 79 24 86 104 109 140 41 184 62
200 94 12 26 20 30 54 31 35 1 39 -1 35 -18 -5 -18 -1 -19 39 -14 24 4 56 9
70 13 l27 6 -5 -163 c-2 -89 -6 -165 -8 -169 -7 -12 36 -174 51 -191 8 -8 14
-23 14 -32 0 -9 4 -18 9 -21 5 -3 14 -27 21 -53 11 -46 11 -49 -15 -70 -14
-13 -33 -23 -42 -23 -9 0 -44 -10 -76 -21 l-60 -21 -43 48 c-48 55 -57 50 -19
-11 13 -22 25 -43 25 -47 0 -9 -43 -16 -129 -22 -48 -4 -69 -10 -83 -25 -10
-11 -16 -19 -12 -16 3 2 17 -1 31 -6 17 -6 47 -3 103 11 97 25 120 25 121 3 0
-14 2 -14 9 3 5 14 26 28 57 37 70 23 163 46 163 40 0 -2 7 3 16 11 8 9 27 16
41 16 16 0 38 13 58 35 28 29 51 40 137 64 56 16 129 34 161 41 l59 12 -20 21
c-25 27 -72 121 -72 142 0 9 -4 24 -10 34 -9 17 -17 16 -151 -16 -218 -52
-205 -36 29 36 114 35 110 30 84 126 -18 64 -35 78 -40 32 -4 -35 -28 -46 -46
-21 -13 17 -14 17 -20 -4 -9 -26 -26 -29 -26 -6 0 12 -6 10 -21 -10 -23 -30
-63 -35 -78 -9 -7 14 -12 15 -24 5 -8 -7 -22 -10 -31 -6 -12 5 -16 0 -16 -20
0 -14 -4 -26 -10 -26 -5 0 -10 12 -10 26 0 17 -6 28 -20 31 -20 5 -24 17 -21
58 4 46 12 63 38 73 50 18 127 40 163 46 19 3 58 12 87 21 49 15 53 18 63 58
20 76 22 82 38 100 8 9 21 17 28 17 7 0 53 13 101 29 76 26 93 36 129 77 39
44 45 48 97 51 52 3 55 2 50 -18 -6 -20 -3 -20 49 -14 l56 7 -2 -174 c-3 -188
13 -295 54 -373 29 -57 54 -140 47 -159 -4 -9 -16 -16 -27 -16 -11 0 -31 -6
-43 -14 -12 -8 -52 -17 -89 -21 l-66 -7 -26 41 c-15 23 -31 41 -36 41 -15 0
-12 -11 15 -59 14 -23 25 -47 25 -51 0 -9 -48 -27 -97 -35 -18 -3 -42 -9 -55
-14 -13 -5 -33 -5 -47 1 -39 14 -43 -5 -10 -50 17 -23 33 -42 36 -42 3 0 -7
16 -23 37 l-27 36 30 -6 c19 -4 60 2 105 14 40 11 85 19 101 16 15 -2 27 0 27
4 0 12 93 47 165 62 79 16 123 36 158 71 25 25 136 64 305 107 88 23 92 25 74
40 -26 20 -82 120 -82 145 -1 45 -10 45 -153 14 -148 -32 -167 -35 -167 -21 0
12 40 26 168 60 62 16 116 32 119 35 4 3 -2 41 -12 84 -18 71 -20 74 -25 42
-6 -43 -40 -54 -58 -18 -11 23 -11 23 -11 -4 -1 -31 -31 -40 -31 -10 -1 12 -5
10 -15 -9 -8 -15 -22 -30 -31 -33 -20 -8 -64 19 -64 39 0 7 -5 17 -11 20 -6 4
-9 0 -7 -11 2 -11 -4 -20 -16 -22 -14 -3 -17 0 -13 12 4 9 2 16 -3 16 -6 0
-10 -18 -10 -40 0 -51 -27 -57 -32 -7 -2 26 -7 31 -24 29 -32 -4 -46 20 -38
68 8 51 23 61 139 90 50 12 120 31 157 41 l66 19 12 53 c18 85 25 91 176 139
131 41 138 45 162 83 37 57 50 65 104 65 41 0 48 -3 48 -20 0 -18 7 -20 55
-20 63 0 59 11 56 -135 -1 -55 2 -150 7 -211 10 -110 17 -134 88 -292 18 -39
15 -82 -6 -92 -8 -4 -31 -15 -50 -24 l-35 -17 41 6 c23 3 82 23 130 46 141 64
242 104 332 129 46 13 86 29 88 35 3 7 -9 35 -25 64 -17 28 -33 62 -37 76 -10
42 -23 45 -109 25 -109 -25 -177 -32 -194 -21 -11 7 -10 11 6 20 17 8 233 71
247 71 12 0 15 38 5 71 -12 40 -22 48 -35 28 -3 -6 -17 -9 -30 -6 -14 2 -27 0
-30 -4 -3 -5 -14 -9 -24 -9 -10 0 -32 -8 -48 -17 -29 -16 -32 -16 -71 2 -22
11 -41 23 -41 28 0 4 -4 7 -9 7 -6 0 -11 -15 -13 -32 -4 -45 -35 -51 -49 -9
-8 22 -18 31 -37 33 -25 3 -27 6 -26 52 0 37 6 53 21 66 11 9 78 31 149 49
189 49 189 49 208 114 25 86 43 101 159 137 125 39 150 52 177 89 19 28 20 33
6 65 -8 19 -19 59 -26 89 -12 62 -42 107 -70 107 -22 0 -30 -19 -30 -76 0 -74
-8 -81 -94 -82 -79 -1 -131 -12 -311 -66 -60 -19 -150 -43 -200 -55 -159 -37
-247 -69 -281 -102 -32 -31 -32 -31 -51 -12 -10 11 -25 33 -34 49 -8 16 -27
35 -42 43 -25 13 -29 13 -52 -9 -20 -18 -25 -34 -27 -84 l-3 -61 -60 -1 c-51
-1 -312 -64 -729 -177 -23 -6 -41 -17 -44 -29 -2 -10 -8 -18 -12 -18 -5 0 -15
-3 -24 -6 -13 -5 -16 1 -16 28 0 24 -8 42 -28 61 -34 33 -49 33 -84 2 -25 -21
-28 -31 -28 -85 0 -46 -4 -62 -16 -67 -9 -3 -20 0 -24 7 -7 11 -45 4 -187 -32
-418 -107 -573 -152 -578 -169 -3 -9 -15 -19 -25 -22 -18 -5 -20 0 -20 53 0
77 -16 91 -63 56 -31 -24 -35 -33 -42 -91 -5 -54 -10 -65 -25 -65 -10 0 -20 4
-22 9 -1 4 -104 -17 -228 -49 -428 -109 -469 -121 -507 -152 -20 -15 -38 -26
-41 -24 -2 3 -5 24 -6 47 -1 33 -7 46 -27 61 -26 19 -27 19 -54 2 -30 -20 -45
-51 -45 -97 0 -46 -9 -54 -65 -54 -54 0 -481 -105 -605 -148 -41 -15 -83 -34
-92 -42 -33 -30 -49 -9 -46 58 3 72 -7 81 -48 45 -21 -17 -32 -39 -39 -78
l-10 -53 -60 -1 c-63 -1 -131 -13 -255 -46 -109 -30 -138 -33 -122 -17 19 21
14 26 -24 24 -23 -2 -48 -13 -67 -29 -33 -29 -67 -50 -67 -41 0 3 -17 -6 -37
-20 -21 -14 -45 -25 -54 -25 -9 0 -28 -9 -42 -20 -44 -35 -60 -20 -51 47 11
83 12 83 79 114 l65 29 1 573 c0 314 4 594 8 621 5 30 16 56 28 65 18 15 151
54 526 156 l137 38 0 296 c0 268 6 338 25 319 4 -3 21 4 39 16 19 12 64 30
102 40 38 10 103 29 144 42 42 13 121 35 175 49 172 42 350 95 353 105 2 6 13
10 25 10 12 0 87 21 167 45 80 25 233 70 340 100 273 76 326 93 340 110 7 8
16 12 21 9 5 -3 100 24 212 59 111 35 256 79 322 96 253 68 329 95 342 121 9
18 13 20 13 8 0 -10 2 -18 4 -18 3 0 74 23 158 51 84 28 250 77 368 110 368
103 380 107 381 138 0 25 1 25 9 4 l9 -21 103 34 c57 18 139 45 183 60 115 37
152 54 136 64 -14 8 -49 189 -52 268 -1 26 -7 41 -13 39 -6 -2 -10 -13 -8 -25
3 -22 -12 -37 -28 -27 -8 5 -7 11 0 20 7 8 9 23 5 34 -4 14 0 21 14 26 11 3
34 23 50 44 20 25 44 42 73 51 186 56 718 234 736 246 34 22 28 38 -13 31 -19
-3 -35 -4 -35 -2 0 8 95 46 122 49 15 2 34 9 42 15 10 8 16 9 21 1 9 -15 -3
-30 -24 -30 -10 0 -32 -7 -47 -15 -26 -13 -27 -15 -7 -15 12 0 25 -5 28 -11 5
-7 14 -4 26 7 19 17 20 17 26 -4 6 -23 27 -30 38 -12 11 18 25 10 25 -15 0
-14 -6 -25 -13 -25 -7 0 -26 -14 -43 -31 l-29 -31 25 7 c14 4 29 11 34 16 17
15 36 10 36 -10 0 -12 -11 -23 -32 -30 -17 -6 -46 -23 -65 -37 -18 -14 -42
-24 -52 -22 -10 2 -29 -2 -42 -9 -34 -17 -337 -116 -447 -147 -50 -14 -109
-33 -130 -42 -20 -10 -41 -18 -47 -18 -5 -1 -12 -12 -13 -25 -3 -22 -1 -23 30
-17 67 12 303 93 303 104 0 18 16 27 24 13 7 -10 34 -5 132 24 168 51 289 95
289 107 0 5 5 6 10 3 23 -14 8 -35 -32 -45 -24 -6 -123 -36 -220 -67 l-178
-56 0 -34 c0 -18 -4 -33 -10 -33 -5 0 -10 14 -10 31 0 21 -4 30 -13 27 -6 -3
-79 -26 -162 -52 -82 -26 -153 -51 -156 -54 -4 -4 -10 -51 -14 -104 l-7 -96
68 15 c37 8 117 32 178 52 94 31 111 39 114 59 4 25 22 30 22 6 0 -11 6 -15
18 -11 9 3 62 19 117 36 55 17 134 42 175 56 41 15 104 33 140 41 84 20 233
64 393 116 95 32 127 47 127 59 0 15 37 46 192 162 l38 28 6 -41 c7 -40 8 -41
38 -35 26 6 735 221 986 300 41 12 233 71 425 130 193 59 404 124 470 145 66
21 300 93 520 160 220 67 528 161 685 210 157 49 443 136 635 195 193 58 397
121 455 140 58 18 242 75 410 125 168 51 391 118 495 150 320 99 497 153 818
251 l309 94 -6 43 c-7 49 -15 47 133 31 l101 -12 6 -36 c9 -58 9 -60 -1 -61
-5 0 -13 13 -16 30 -4 17 -9 34 -12 37 -3 3 -44 -25 -90 -61 -47 -36 -90 -66
-96 -66 -6 0 -11 16 -11 36 0 36 -1 36 -32 30 -18 -3 -82 -22 -143 -41 -213
-66 -901 -277 -960 -295 -33 -10 -215 -66 -405 -125 -190 -59 -408 -127 -485
-150 l-140 -43 0 -45 c0 -61 -11 -68 -19 -12 -4 25 -10 45 -14 45 -9 0 -20 -3
-342 -103 -151 -47 -401 -124 -555 -171 -154 -46 -483 -148 -730 -224 -248
-77 -478 -148 -512 -157 l-62 -17 6 -49 c4 -33 2 -49 -6 -49 -6 0 -11 8 -11
18 0 12 -9 18 -27 20 -45 4 -253 -76 -253 -96 0 -5 7 -17 15 -28 13 -16 16
-17 25 -4 5 8 10 25 10 38 0 13 4 20 10 17 5 -3 10 -17 10 -30 0 -19 7 -26 28
-31 15 -3 40 -10 56 -15 39 -12 38 -13 31 19 -3 16 -1 39 4 53 8 20 10 15 10
-32 1 -36 6 -61 15 -68 17 -14 18 -11 37 94 11 62 13 67 20 41 5 -16 3 -65 -2
-108 -6 -44 -9 -90 -7 -103 3 -15 0 -26 -9 -29 -26 -11 -36 -7 -23 9 7 8 10
16 6 16 -3 1 -10 3 -16 4 -5 1 -16 4 -22 5 -7 1 -2 5 12 9 l24 7 -33 23 c-27
19 -35 21 -41 10 -7 -11 -10 -10 -16 5 -6 16 -14 18 -59 12 -61 -7 -84 6 -101
55 -13 38 -22 40 -94 15 -25 -8 -65 -20 -90 -27 -40 -10 -43 -12 -27 -24 13
-9 15 -15 6 -20 -8 -6 -10 -39 -6 -119 4 -98 4 -103 -4 -41 -20 147 -19 143
-34 116 -18 -35 -25 -4 -8 37 15 36 8 40 -35 18 -15 -7 -59 -22 -99 -32 l-72
-18 3 -62 c3 -56 6 -64 37 -92 33 -30 89 -44 89 -22 0 6 -5 10 -12 10 -6 0 -8
3 -5 7 4 3 2 12 -4 20 -10 11 -8 12 7 6 40 -16 64 -41 85 -87 18 -42 19 -53 9
-97 -7 -27 -25 -66 -40 -88 l-28 -38 47 -45 c67 -64 71 -65 65 -21 -2 21 -2
32 2 26 3 -7 10 -13 16 -13 9 0 8 37 -8 173 l-6 47 30 -27 c88 -80 103 -95 99
-100 -8 -7 -48 16 -79 45 l-27 25 5 -39 c12 -89 15 -104 29 -117 12 -12 11
-17 -6 -36 -11 -11 -26 -21 -34 -21 -8 0 -15 -7 -15 -15 0 -17 55 -22 64 -6 4
5 65 28 136 51 119 38 129 43 120 60 -16 30 -12 69 10 82 12 8 20 24 20 40 0
30 16 39 22 12 2 -12 11 -7 37 18 30 29 62 84 82 143 7 20 7 20 8 0 2 -35 50
-175 66 -191 16 -16 21 -94 6 -94 -5 0 -11 13 -14 29 -4 19 -17 35 -34 44 -24
13 -27 20 -25 53 1 22 -1 52 -6 69 l-8 29 -31 -44 c-17 -25 -41 -54 -53 -65
-35 -31 -62 -93 -55 -124 6 -27 5 -27 -121 -67 -80 -25 -128 -45 -130 -54 -2
-8 -6 -25 -9 -37 -5 -16 -2 -23 13 -27 30 -10 53 -41 46 -61 -6 -14 -9 -12
-20 14 -12 29 -15 30 -53 25 -34 -5 -44 -2 -66 20 l-25 25 -83 -24 c-266 -77
-541 -159 -639 -189 l-113 -36 3 -46 4 -45 42 7 c22 3 65 13 95 20 30 8 56 13
58 11 2 -3 -18 -10 -44 -17 -26 -7 -68 -17 -93 -24 -60 -16 -65 -43 -16 -92
20 -20 39 -33 43 -31 5 3 40 8 78 11 39 3 94 13 124 21 52 16 53 17 47 47 -3
17 -6 48 -6 69 0 34 -3 38 -27 41 -25 3 -26 4 -7 9 37 11 44 -4 47 -87 l2 -79
-87 -22 c-48 -12 -104 -33 -125 -47 -48 -33 -33 -33 107 5 63 17 149 39 190
50 41 10 104 27 140 39 36 11 75 20 87 20 21 0 40 -16 30 -26 -2 -2 -57 -20
-122 -38 -64 -19 -121 -38 -125 -43 -12 -11 25 -432 60 -693 6 -41 13 -93 15
-115 3 -22 10 -41 15 -43 6 -2 10 -12 10 -21 0 -10 3 -21 8 -25 7 -8 8 -13 11
-41 1 -12 12 -14 64 -8 34 3 63 7 65 8 2 1 -20 80 -48 175 -28 95 -49 174 -47
176 3 3 68 -203 104 -329 4 -15 11 -18 31 -13 15 4 62 12 105 18 76 11 78 12
73 37 -3 14 -17 134 -31 266 -14 132 -29 276 -35 320 -5 44 -14 134 -20 200
-6 66 -13 138 -15 160 -3 22 -1 47 5 55 11 17 10 22 15 -80 1 -36 12 -148 23
-250 12 -102 28 -246 37 -320 8 -74 21 -195 29 -268 11 -109 18 -138 35 -156
25 -26 46 -84 55 -152 6 -43 4 -52 -13 -68 -12 -11 -21 -22 -21 -27 0 -7 98
15 107 25 3 3 0 33 -6 67 -7 34 -9 65 -4 68 4 3 10 13 12 21 11 37 12 669 2
759 -7 53 -41 228 -77 390 -36 161 -63 295 -61 297 5 5 69 -213 91 -306 8 -36
23 -110 32 -165 16 -94 18 -98 32 -77 8 12 24 22 35 22 19 0 19 -1 4 -18 -10
-10 -14 -22 -10 -25 3 -4 -2 -7 -13 -7 -11 0 -15 -3 -8 -8 15 -9 49 -76 35
-68 -14 9 -14 -39 0 -65 11 -22 16 -39 28 -112 4 -26 17 -57 27 -69 10 -12 13
-18 5 -13 -11 6 -12 5 -5 -6 5 -8 9 -18 9 -24 0 -5 15 -10 33 -10 19 -1 32 4
32 12 0 7 5 13 10 13 6 0 10 -3 10 -6 0 -46 146 -919 156 -936 11 -17 149 14
157 35 5 13 -9 193 -18 237 -8 40 -23 190 -39 395 -9 105 -18 219 -21 255 l-5
65 19 -55 c14 -38 20 -80 20 -137 0 -45 4 -90 10 -101 5 -10 11 -43 12 -73 1
-30 8 -100 16 -157 7 -57 11 -107 8 -112 -3 -5 1 -49 10 -97 8 -48 15 -114 15
-145 0 -60 7 -72 36 -61 15 5 16 18 12 102 l-5 96 15 -92 c9 -58 19 -93 26
-93 23 0 178 50 192 61 8 6 14 18 14 25 0 8 10 30 23 49 18 29 27 35 52 33 24
-3 31 -9 39 -38 5 -19 10 -36 12 -38 4 -6 194 31 304 60 63 16 129 33 145 37
17 4 39 13 50 18 11 6 43 14 70 18 28 4 59 13 70 20 11 6 56 17 100 24 44 6
134 25 200 41 382 92 586 142 630 155 28 8 100 26 160 40 61 15 122 35 137 46
22 15 34 17 65 10 21 -5 30 -9 21 -10 -18 -1 -23 -25 -12 -54 4 -13 12 -12 52
3 26 10 216 60 422 110 206 50 391 97 410 105 33 12 137 31 152 27 4 -1 20 3
35 9 37 15 103 28 103 20 -1 -14 -85 -43 -128 -45 -43 -1 -47 -3 -47 -27 -1
-29 -48 -79 -74 -79 -9 0 -31 9 -48 20 -23 13 -33 16 -33 7 0 -14 -96 -51
-110 -42 -6 4 -13 0 -16 -9 -3 -8 -24 -18 -47 -22 -52 -10 -39 -6 -122 -37
-16 -7 -33 -12 -37 -13 -5 -1 -9 -3 -10 -4 -2 -1 -14 -4 -28 -6 -53 -7 -66
-11 -110 -31 -25 -11 -64 -23 -85 -27 -22 -4 -76 -19 -120 -33 -44 -14 -91
-28 -105 -32 -38 -11 -52 -47 -46 -118 4 -50 2 -63 -9 -63 -9 0 -17 15 -20 38
-10 54 -13 65 -33 89 l-17 22 -70 -20 c-38 -12 -83 -25 -100 -29 -52 -16 -149
-41 -165 -44 -8 -2 -22 -6 -30 -10 -8 -3 -46 -15 -85 -25 -38 -10 -140 -40
-225 -65 -85 -25 -207 -60 -270 -77 -63 -17 -126 -40 -140 -51 -16 -13 -36
-18 -60 -17 -19 2 -60 -4 -91 -14 -45 -13 -58 -22 -63 -42 -8 -30 -21 -32 -36
-5 -13 25 -30 25 -61 2 -15 -11 -39 -17 -64 -16 -22 0 -54 -5 -72 -13 -32 -13
-80 -25 -253 -63 -47 -10 -105 -24 -130 -30 -25 -7 -58 -13 -75 -15 -34 -3
-52 -7 -115 -28 -25 -8 -67 -20 -93 -27 l-49 -13 6 -119 c3 -65 8 -123 11
-128 3 -4 7 -46 10 -92 2 -45 9 -117 15 -158 6 -41 19 -144 30 -229 11 -85 24
-159 29 -164 5 -5 7 -34 4 -63 -4 -36 -2 -54 5 -54 16 0 34 38 26 52 -4 6 -3
8 2 5 6 -3 40 25 77 63 37 37 69 64 72 60 2 -4 -16 -36 -40 -71 -40 -57 -44
-69 -41 -109 2 -25 5 -53 5 -62 1 -9 10 -19 20 -23 24 -7 34 -64 16 -85 -14
-16 -31 -90 -21 -90 3 0 19 26 35 58 17 31 41 71 55 87 l26 30 -15 -42 c-7
-24 -32 -79 -54 -124 -23 -45 -41 -89 -41 -98 1 -21 20 -45 43 -54 18 -7 24
-27 7 -27 -5 0 -10 5 -10 10 0 6 -4 10 -10 10 -23 0 -9 -49 21 -74 36 -31 43
-31 123 -10 84 22 124 41 136 64 10 18 7 20 -19 20 -16 0 -33 -5 -36 -10 -4
-6 -11 -8 -16 -5 -12 8 -12 45 0 45 5 0 14 13 20 28 10 24 16 27 46 24 23 -3
35 0 35 8 0 7 8 10 19 7 13 -3 18 0 15 8 -6 14 18 36 43 39 10 1 22 12 28 24
5 12 14 22 20 22 14 0 35 49 24 56 -5 3 -7 10 -4 15 9 13 -16 11 -47 -5 -37
-20 -52 -2 -28 36 17 28 17 31 -2 84 -21 59 -19 75 9 53 15 -12 16 -12 8 1 -7
12 -6 13 7 3 8 -7 17 -12 19 -10 2 1 3 0 2 -2 -1 -2 11 -15 27 -29 17 -15 30
-33 30 -42 0 -8 10 0 21 18 17 26 22 51 24 121 3 97 14 128 50 137 14 3 25 9
25 13 0 3 4 12 9 20 8 12 12 13 26 1 14 -11 16 -11 13 1 -2 8 6 15 19 17 29 4
73 50 73 76 0 11 -7 30 -15 40 -17 22 -20 62 -6 70 5 3 14 -8 20 -24 5 -17 17
-33 25 -36 8 -3 20 -19 26 -35 8 -19 16 -26 24 -21 6 5 24 12 41 16 40 10 53
22 76 73 22 48 50 57 71 23 9 -14 24 -20 49 -20 19 0 39 3 43 7 9 10 78 33 98
33 9 0 23 6 30 13 7 8 22 13 33 11 10 -1 34 4 53 12 19 8 54 14 78 14 23 0 46
5 49 10 3 6 21 10 40 10 19 0 37 5 41 11 3 6 19 9 35 5 15 -3 31 -1 34 4 3 6
17 10 29 10 13 0 39 7 58 15 22 9 50 12 72 8 29 -4 40 -2 50 12 8 11 20 16 29
12 9 -3 32 5 52 19 20 13 44 24 54 24 10 0 21 3 24 7 4 3 19 8 34 9 24 3 97
30 113 41 2 2 7 41 10 86 4 62 8 82 19 82 8 0 19 -15 23 -35 17 -69 41 -119
57 -122 9 -2 32 2 52 9 38 13 103 24 159 27 19 1 41 5 48 10 7 4 25 9 40 12
15 3 50 9 78 14 28 5 60 6 72 4 11 -3 30 -1 41 6 24 13 184 17 219 6 12 -4 31
-24 41 -44 16 -32 76 -235 95 -325 4 -16 11 -25 17 -21 13 8 117 29 186 38 61
8 254 61 299 82 l32 15 -4 87 c-3 48 -11 142 -19 209 -17 141 -18 173 -6 173
5 0 17 -21 27 -47 22 -62 37 -74 75 -61 16 5 29 16 29 24 0 8 6 11 15 8 8 -3
28 1 45 9 16 9 30 12 30 8 0 -12 164 -8 173 4 4 6 11 4 17 -5 5 -8 10 -11 10
-7 0 5 9 2 21 -6 13 -10 34 -13 60 -10 28 4 39 2 39 -8 0 -10 3 -10 12 -1 15
15 31 16 22 0 -4 -7 -3 -8 4 -4 7 4 17 4 24 0 7 -4 31 -7 55 -7 24 1 45 -3 48
-8 4 -5 22 -6 41 -3 24 4 34 1 34 -8 0 -12 11 -14 100 -19 49 -3 123 9 131 22
7 11 9 9 9 -8 0 -26 0 -26 35 -13 19 7 34 6 56 -5 28 -15 29 -15 31 7 2 31 1
38 -6 103 -7 64 1 88 18 58 6 -12 28 -39 48 -61 32 -35 40 -40 65 -33 l28 7 2
121 1 120 -26 14 c-15 8 -39 13 -54 11 -30 -4 -62 -45 -55 -72 6 -24 -8 -44
-25 -37 -14 5 -33 91 -43 197 -2 25 -9 72 -15 104 -12 66 -8 86 15 86 18 0 21
-8 30 -72 4 -34 10 -46 20 -42 7 3 16 -3 20 -15 13 -41 20 -20 22 62 1 45 5
109 10 142 5 33 6 79 3 103 -5 29 -2 46 7 53 22 19 25 71 9 174 -23 149 -26
158 -45 180 -26 28 -56 87 -52 104 3 14 -62 81 -79 81 -6 0 -13 -6 -16 -14 -8
-20 -64 -14 -80 9 -9 12 -14 46 -14 92 0 40 0 76 -1 81 0 4 6 8 14 10 10 2 18
-10 24 -35 5 -21 13 -38 18 -38 6 0 15 -4 22 -8 7 -5 18 4 29 23 10 16 22 30
27 30 5 0 7 14 5 31 -4 25 0 33 19 42 13 6 26 21 30 34 6 26 -2 211 -11 253
-6 27 -17 100 -41 275 -9 61 -22 148 -30 195 -8 47 -19 112 -25 145 -31 189
-84 444 -98 470 -11 20 -17 58 -18 115 -1 47 -6 112 -12 145 -9 51 -26 156
-48 305 -2 19 -9 64 -14 100 -6 36 -19 135 -30 220 -23 173 -47 327 -83 535
-48 270 -57 332 -97 625 -51 369 -82 547 -126 723 -37 147 -71 333 -84 460 -5
57 -13 84 -28 100 -18 19 -21 41 -27 177 -4 91 -13 178 -22 210 -9 30 -19 73
-24 95 -4 22 -14 58 -23 80 -17 45 -21 132 -6 137 5 2 -1 72 -15 173 -14 94
-25 171 -25 173 0 1 -418 2 -928 2 l-928 0 -125 -46 c-68 -25 -215 -79 -326
-119 -111 -41 -223 -83 -247 -94 -25 -11 -48 -16 -51 -11 -3 4 -8 50 -11 102
l-7 93 22 -27 c13 -16 28 -28 34 -28 7 0 13 -16 14 -36 2 -48 15 -61 47 -46
36 16 50 47 30 66 -8 9 -11 16 -5 16 6 0 11 9 11 19 0 12 13 26 32 35 28 15
34 15 55 1 13 -9 21 -20 18 -25 -4 -6 6 -10 21 -10 l26 0 -23 -20 c-32 -26 -5
-26 32 1 38 27 37 39 -3 39 -35 1 -35 0 19 38 13 9 15 14 5 18 -10 5 -9 9 5
20 15 11 -352 13 -2393 14 l-2411 0 -85 -34 c-93 -36 -118 -34 -118 9 l0 25
-496 0 c-393 0 -494 -3 -488 -12 4 -7 16 -24 25 -38 10 -14 20 -39 24 -57 5
-27 2 -37 -19 -58 -14 -14 -26 -30 -26 -35 0 -14 52 -134 65 -148 16 -18 241
55 365 119 177 91 307 149 333 149 14 0 54 9 88 20 46 14 67 16 76 8 9 -7 17
-7 28 2 20 16 19 5 -2 -31 -22 -37 -73 -61 -393 -189 -135 -54 -281 -115 -325
-135 -44 -20 -109 -41 -143 -46 -73 -11 -206 -62 -240 -93 -13 -12 -33 -21
-45 -21 -38 0 -37 -17 34 -735 16 -168 34 -325 38 -350 8 -42 9 -40 11 35 2
63 4 74 11 50 8 -29 5 144 -6 288 -9 129 6 23 30 -217 14 -137 29 -254 32
-259 5 -8 7 -64 4 -107 -1 -5 -8 -10 -16 -10 -11 0 -15 11 -15 36 0 30 -2 34
-14 25 -11 -9 -14 -32 -13 -83 1 -50 -2 -73 -10 -75 -9 -3 -13 8 -13 36 0 23
-2 41 -5 41 -12 0 -55 -24 -55 -32 0 -4 -4 -8 -10 -8 -23 0 -8 27 25 44 19 11
35 23 35 28 0 13 -10 10 -57 -18 -29 -16 -51 -23 -65 -19 -20 7 -20 8 6 31 25
24 32 44 20 57 -10 9 -34 -4 -34 -19 0 -17 -17 -19 -22 -2 -3 8 -18 7 -53 -5
-26 -9 -50 -16 -52 -14 -1 2 29 18 67 36 l70 32 1 62 c1 53 2 57 9 29 15 -65
22 -45 16 48 -13 206 -18 345 -13 340 3 -3 14 -61 23 -130 15 -107 19 -120 26
-90 10 44 12 187 4 271 -4 35 -18 192 -32 349 -14 157 -29 289 -34 294 -5 5
-17 5 -27 1 -10 -4 -31 -9 -48 -10 -16 -1 -75 -19 -130 -40 -55 -20 -126 -40
-157 -43 -70 -6 -76 3 -61 92 10 54 9 64 -8 88 -10 15 -19 41 -19 57 0 21 -7
34 -21 42 -19 10 -21 16 -14 62 5 29 8 90 8 135 -1 102 -11 120 -109 179 l-69
42 -311 1 -310 0 -145 -60 c-79 -33 -150 -67 -156 -77 -20 -26 -27 -81 -13
-98 7 -8 22 -15 35 -15 32 0 59 -33 47 -57 -17 -31 -25 -110 -17 -171 l8 -57
16 35 15 35 4 -33 c3 -25 -3 -39 -21 -56 -14 -13 -31 -48 -42 -89 -10 -37 -22
-70 -26 -72 -4 -3 -5 -32 -2 -65 4 -45 2 -65 -11 -84 -20 -31 -20 -63 -1 -131
10 -32 27 -62 45 -79 16 -14 41 -44 56 -67 23 -37 24 -44 13 -71 -15 -35 -37
-47 -260 -137 -96 -38 -244 -99 -329 -136 -85 -37 -195 -80 -245 -96 -49 -17
-124 -46 -167 -65 -42 -19 -146 -61 -230 -93 -84 -32 -189 -75 -233 -94 -44
-19 -116 -45 -161 -56 -44 -11 -107 -32 -140 -47 -94 -42 -513 -215 -582 -241
-93 -34 -173 -27 -187 17 -8 25 13 912 24 1005 5 44 12 242 16 440 8 424 8
427 34 468 36 59 71 81 264 164 l192 83 -2047 0 -2048 0 0 -829z m6664 763 c9
-3 16 -12 16 -18 0 -7 18 -30 41 -51 l41 -38 -4 -67 c-3 -63 -6 -71 -45 -113
-42 -45 -47 -55 -58 -119 -8 -49 -37 -70 -76 -56 -39 14 -89 6 -177 -26 -79
-29 -115 -27 -133 6 -21 38 38 89 156 134 52 19 46 10 119 199 58 148 73 167
120 149z m6767 -143 c4 -3 9 -27 12 -52 6 -46 6 -46 -31 -62 -20 -9 -68 -27
-105 -41 l-68 -24 -9 24 c-5 13 -12 24 -15 24 -5 0 -140 -48 -325 -117 -194
-72 -231 -84 -243 -80 -6 2 20 15 58 30 536 202 510 192 513 218 3 28 57 69
90 69 12 0 27 6 34 14 13 13 75 12 89 -3z m-969 -288 c26 -52 41 -56 95 -28
34 18 43 7 43 -52 l0 -41 -72 -30 c-40 -16 -124 -46 -187 -66 -63 -20 -119
-40 -125 -45 -6 -5 -42 -18 -81 -31 -38 -12 -83 -28 -100 -36 -59 -26 -370
-151 -395 -159 -14 -4 -70 -26 -125 -48 -55 -22 -108 -40 -117 -39 -12 0 -18
-7 -18 -22 0 -36 -38 -61 -150 -100 -58 -20 -148 -52 -201 -71 -53 -19 -100
-35 -105 -35 -4 0 -47 -17 -94 -37 -47 -20 -112 -44 -145 -54 -33 -9 -99 -34
-147 -54 -113 -49 -118 -45 -118 76 0 48 4 90 8 93 5 3 31 -3 58 -13 49 -19
85 -24 158 -22 35 1 46 9 103 68 36 37 71 80 79 95 13 26 42 37 57 22 4 -4 21
-8 39 -9 18 -2 60 -6 93 -10 51 -6 69 -4 112 15 49 21 134 98 160 145 11 19
12 19 52 -2 l41 -22 15 22 c8 12 15 29 15 39 0 11 5 15 15 12 8 -4 15 -1 15 5
0 7 -7 14 -15 17 -16 7 -21 54 -5 54 5 0 21 12 35 26 l26 25 32 -18 c18 -11
32 -26 32 -33 0 -8 12 -19 26 -24 21 -7 33 -5 57 12 16 12 41 22 54 22 12 1
50 7 83 15 33 8 80 15 106 15 25 0 50 5 57 12 7 7 12 9 12 6 0 -4 15 -2 33 3
17 6 57 13 87 16 47 4 59 10 83 38 26 32 30 33 80 28 44 -4 62 -1 103 20 86
44 92 52 85 127 -6 63 3 120 19 120 4 0 18 -21 32 -47z m-5685 -373 c48 -21
66 -61 41 -86 -37 -37 -299 -124 -374 -124 -73 0 -69 22 15 102 121 116 224
151 318 108z m3548 -400 c24 -43 75 -168 75 -183 0 -8 -12 -22 -26 -31 -23
-16 -248 -103 -674 -263 -96 -36 -183 -70 -194 -75 -12 -7 -22 -6 -29 1 -16
16 -37 14 -37 -3 0 -8 -11 -28 -25 -44 -30 -35 -153 -88 -169 -72 -6 6 -20 10
-33 10 -13 0 -31 9 -40 20 -10 11 -22 20 -28 20 -6 0 -74 -23 -150 -50 -77
-28 -173 -62 -212 -76 l-73 -26 0 -44 c0 -41 -3 -46 -42 -71 -40 -25 -583
-233 -868 -333 -76 -27 -142 -57 -169 -78 -56 -42 -124 -77 -181 -92 -25 -6
-83 -28 -130 -47 -100 -43 -397 -147 -490 -172 -36 -10 -108 -34 -160 -54 -52
-19 -176 -65 -275 -102 -426 -158 -438 -163 -488 -208 -20 -19 -40 -31 -43
-25 -3 5 -12 4 -20 -3 -9 -7 -61 -16 -117 -20 -202 -15 -308 -51 -402 -134
-45 -39 -127 -85 -240 -131 -556 -230 -625 -256 -695 -256 -63 -1 -116 21
-131 55 -6 14 -7 77 -2 172 4 83 5 188 1 235 -4 47 -12 171 -17 275 -10 182
-9 192 10 233 26 53 95 97 138 89 16 -3 93 -48 172 -100 188 -123 235 -146
338 -164 161 -28 193 -28 249 1 74 37 92 34 158 -26 73 -68 90 -77 144 -78 86
0 156 70 211 210 11 30 25 63 30 72 5 10 9 23 9 30 0 6 7 20 16 29 20 22 22
128 4 139 -22 14 11 63 47 72 18 5 49 20 70 34 45 30 65 13 24 -22 l-26 -23
40 6 c39 6 40 6 22 -14 -9 -11 -17 -28 -18 -39 0 -17 -2 -17 -11 4 -11 22 -28
30 -28 12 0 -5 -7 -10 -15 -10 -9 0 -18 -7 -21 -15 -3 -8 -14 -17 -25 -20 -14
-5 -19 -16 -19 -42 0 -27 3 -34 15 -29 8 3 21 -4 30 -17 14 -21 15 -20 15 21
0 37 4 44 27 53 37 14 54 4 20 -12 -21 -10 -27 -18 -23 -33 3 -12 6 -27 6 -33
0 -7 5 -13 10 -13 6 0 10 7 10 15 0 8 5 15 10 15 6 0 10 -9 10 -19 0 -25 39
-71 46 -53 3 6 10 9 15 6 6 -3 18 1 27 9 10 9 26 15 37 13 11 -2 37 3 59 10
21 8 55 14 75 14 38 0 130 35 246 93 101 50 214 87 277 91 53 3 55 2 75 -33
12 -20 32 -42 45 -48 51 -24 141 -44 167 -38 14 4 65 44 112 91 48 46 93 84
100 84 8 0 38 -9 67 -20 29 -11 66 -20 83 -20 45 0 108 42 173 115 51 58 59
73 69 128 10 62 11 63 70 101 71 46 104 48 202 11 87 -34 146 -30 240 15 49
23 78 46 115 91 53 63 80 108 80 132 0 18 42 47 76 53 19 3 33 -4 58 -32 34
-37 35 -37 60 -21 14 10 38 43 54 74 28 57 103 123 141 123 10 0 36 -16 59
-35 108 -93 225 -87 338 17 48 44 104 144 104 186 0 29 53 62 102 62 52 0 87
-46 146 -192 7 -16 15 -28 20 -28 5 0 14 42 21 94 16 116 20 123 54 102 24
-16 26 -16 56 14 17 18 31 36 31 41 0 14 57 39 149 66 47 14 117 38 154 54 37
17 105 38 150 48 45 10 116 35 157 54 86 41 106 42 125 7z m3766 -670 c15 0
30 -4 33 -9 3 -5 16 -7 29 -5 42 8 -58 -28 -147 -53 -93 -26 -105 -23 -106 19
0 9 -3 23 -6 32 -5 13 2 16 42 15 27 0 63 4 79 9 17 5 34 6 40 1 5 -5 21 -9
36 -9z m-766 -80 c4 -6 15 -8 26 -5 13 4 26 -2 43 -19 13 -14 29 -26 35 -26
13 0 101 -70 101 -80 0 -16 -89 -53 -211 -89 -74 -21 -205 -62 -291 -90 -87
-28 -165 -51 -173 -51 -27 0 -18 58 17 108 53 76 159 176 203 190 22 7 49 17
60 22 17 8 156 46 177 49 4 1 10 -4 13 -9z m-11568 -254 c40 -47 27 -101 -50
-202 -64 -84 -132 -138 -198 -158 -64 -18 -175 -24 -190 -9 -14 14 -14 77 0
111 8 20 29 39 59 54 26 13 56 39 67 57 46 75 84 118 130 149 45 31 56 34 104
30 44 -4 59 -10 78 -32z m-569 -179 c12 -7 38 -34 56 -60 30 -41 33 -52 26
-83 -10 -42 -7 -39 -44 -58 -16 -8 -45 -36 -65 -62 -29 -38 -50 -53 -106 -76
-38 -15 -74 -28 -78 -28 -5 0 -34 -22 -65 -49 -40 -34 -74 -53 -112 -64 -89
-24 -144 -28 -167 -12 -23 16 -36 52 -22 61 5 3 9 14 9 24 0 35 22 67 61 89
25 15 57 48 89 96 38 57 63 82 117 115 181 115 245 137 301 107z m7682 -792
c0 -22 -51 -64 -77 -65 -18 0 -23 -6 -23 -25 0 -28 3 -30 33 -13 12 7 34 13
48 14 24 1 26 -2 25 -35 -1 -24 -5 -35 -14 -33 -10 2 -13 -9 -10 -40 2 -39 0
-43 -22 -46 -21 -3 -22 -2 -11 12 10 12 9 19 -7 36 -11 12 -23 17 -26 12 -5
-9 -54 -7 -87 3 -26 8 -20 51 8 64 13 6 30 11 38 11 16 0 20 16 6 24 -5 3 -33
-3 -62 -13 -30 -10 -72 -21 -93 -25 l-39 -8 29 25 c16 13 63 34 104 46 41 13
95 34 120 47 54 28 60 29 60 9z m603 -101 c51 -26 87 -65 87 -95 0 -58 -50
-61 -111 -6 -40 36 -54 66 -44 97 8 24 26 25 68 4z m-2047 -433 c-31 -19 -33
-31 -6 -31 11 0 20 -4 20 -10 0 -5 7 -10 15 -10 8 0 16 -7 17 -15 0 -8 1 -18
2 -23 1 -4 -9 -20 -21 -36 -19 -23 -26 -26 -38 -16 -9 8 -28 10 -55 5 -26 -4
-46 -3 -55 5 -8 6 -20 9 -27 5 -7 -4 -4 1 6 9 11 9 23 16 28 16 4 0 8 6 8 13
0 6 16 23 35 36 20 13 34 25 32 27 -4 4 -294 -84 -316 -96 -28 -14 -122 -39
-116 -30 3 4 49 22 103 40 53 17 139 52 191 77 92 44 163 64 190 55 9 -3 5
-10 -13 -21z m-1442 -424 c3 3 6 1 6 -5 0 -6 -9 -14 -21 -17 -22 -7 -20 -32 2
-26 8 1 23 4 34 5 11 2 44 8 73 16 74 17 74 7 1 -22 -52 -21 -62 -29 -65 -52
-2 -17 2 -26 12 -26 8 0 14 7 14 15 0 17 16 20 25 5 4 -6 1 -18 -7 -27 -12
-15 -9 -15 25 -9 48 9 47 2 -2 -24 -22 -11 -42 -24 -45 -29 -10 -15 23 -41 52
-41 17 0 22 -3 14 -8 -9 -6 0 -23 32 -60 54 -63 61 -82 46 -126 -14 -45 -56
-82 -108 -96 -38 -10 -48 -8 -86 11 -61 30 -70 52 -62 146 3 43 9 93 12 112 6
32 6 33 -16 21 -21 -11 -22 -10 -17 9 6 23 -12 28 -31 9 -18 -18 -34 4 -26 36
7 28 14 32 30 16 13 -13 64 24 64 46 0 18 -13 18 -48 0 -41 -20 -95 -29 -89
-13 2 6 10 12 17 12 8 0 19 18 25 43 9 37 12 40 21 25 11 -16 13 -15 19 10 9
33 22 36 21 5 -1 -32 29 -30 31 2 0 14 1 31 2 38 1 9 6 10 20 3 10 -6 21 -7
25 -4z m-2552 -1534 c13 -12 16 -35 17 -127 l0 -113 -39 -12 c-41 -12 -152
-17 -168 -7 -5 3 -12 19 -15 36 -4 16 -16 38 -27 47 -39 33 -17 87 57 140 88
64 133 74 175 36z m292 -314 c43 -12 65 -17 81 -19 22 -2 45 -28 39 -44 -19
-49 -128 -60 -211 -22 -28 13 -53 22 -56 20 -6 -6 -77 28 -77 37 0 9 41 35 65
42 27 7 109 -1 159 -14z m8936 -2042 c32 -16 32 -45 -1 -69 -22 -17 -30 -18
-48 -8 -20 10 -26 7 -55 -24 l-33 -36 -11 22 c-17 31 -8 66 25 100 30 31 79
37 123 15z m-8323 -663 c5 -14 16 -15 71 -10 l65 7 -7 -73 c-19 -216 -19 -287
0 -378 20 -101 17 -110 -38 -115 -18 -2 -39 -3 -45 -4 -7 -1 -13 -7 -13 -14 0
-14 -22 -39 -54 -61 -16 -11 -17 -16 -7 -37 8 -15 1 -11 -19 14 -18 20 -41 37
-51 37 -35 0 -34 29 1 66 19 18 36 32 38 29 3 -3 11 0 19 6 22 19 15 78 -17
134 -26 45 -35 53 -67 58 -50 8 -61 -5 -75 -85 -9 -56 -8 -71 6 -98 23 -47 21
-50 -28 -50 -48 0 -76 -19 -76 -51 0 -31 -18 -22 -30 17 l-12 36 -51 -6 c-27
-4 -63 -10 -80 -13 -57 -11 -19 14 48 32 72 20 73 22 54 101 -13 49 -16 52
-34 27 -11 -15 -15 -15 -30 -3 -15 12 -19 12 -30 -3 -6 -9 -15 -14 -18 -10
-15 14 -57 11 -67 -5 -9 -16 -11 -16 -21 1 -7 13 -17 15 -37 11 -15 -4 -30
-12 -33 -17 -10 -15 -39 47 -39 82 0 33 35 67 79 77 14 4 68 18 120 33 l94 26
14 50 c17 59 48 91 106 105 69 17 162 54 217 85 32 19 39 19 47 -1z m4197
-175 c20 -12 36 -22 36 -24 0 -3 -73 -20 -136 -31 -16 -3 -45 -9 -64 -14 -19
-6 -49 -10 -67 -10 -18 0 -38 -6 -45 -13 -6 -8 -22 -12 -34 -9 -11 2 -40 -5
-63 -16 -22 -11 -38 -15 -34 -9 4 7 0 8 -11 4 -10 -4 -24 -7 -32 -7 -9 0 -13
-4 -10 -9 7 -11 -115 -42 -184 -46 -123 -8 -207 -23 -248 -45 -39 -21 -47 -22
-85 -10 -29 8 -37 14 -26 20 29 15 158 42 170 34 7 -4 10 -3 6 3 -7 11 219 72
448 122 77 17 181 42 230 55 113 30 107 30 149 5z m-994 -263 c0 -2 -9 -2 -20
1 -22 6 -80 -14 -92 -31 -5 -8 -8 -7 -8 0 0 7 -11 11 -25 10 -14 0 -25 -3 -25
-6 0 -3 -14 -7 -32 -8 -17 -2 -38 -8 -45 -14 -7 -6 -16 -8 -19 -5 -8 7 -63
-12 -94 -33 -17 -12 -36 -16 -59 -12 -22 3 -32 1 -27 -6 9 -15 -8 -23 -80 -37
-37 -7 -69 -8 -78 -3 -9 5 -22 6 -28 2 -7 -4 -24 -9 -37 -10 -33 -4 -72 -25
-65 -36 7 -11 -3 -10 -28 3 -11 6 -18 7 -15 1 4 -5 -5 -14 -19 -21 -32 -14
-37 -14 -29 2 4 6 0 4 -8 -5 -9 -12 -27 -18 -53 -17 -48 1 -92 13 -79 21 14 8
404 112 500 134 44 9 154 36 245 59 148 37 168 40 193 28 15 -7 27 -15 27 -17z
m-1004 -230 c18 -14 18 -15 2 -21 -10 -4 -25 -4 -34 -1 -8 3 -13 2 -10 -3 7
-10 -60 -25 -74 -16 -6 3 -10 0 -11 -7 0 -11 -2 -11 -6 0 -4 10 -9 9 -24 -4
-13 -12 -19 -13 -19 -4 0 9 -7 8 -25 -4 -14 -9 -30 -14 -36 -11 -5 4 -15 2
-22 -3 -7 -5 -23 -13 -37 -16 -19 -6 -21 -5 -10 3 8 6 10 11 4 11 -6 0 -13 -3
-17 -6 -31 -31 -318 -90 -300 -61 2 4 10 7 17 7 7 0 26 6 42 14 16 8 70 24
119 35 50 11 160 38 245 60 183 46 171 45 196 27z m-5309 -193 c28 -42 22
-107 -16 -181 -17 -34 -43 -72 -56 -84 -13 -12 -36 -52 -51 -90 -19 -50 -31
-68 -44 -68 -10 0 -25 -3 -33 -6 -9 -3 -30 11 -55 37 l-41 42 -75 -6 c-89 -8
-122 3 -131 44 -13 56 27 90 134 114 l70 16 16 54 c22 76 49 103 130 131 95
32 130 31 152 -3z m1443 -708 c0 -8 7 -15 15 -15 8 0 15 5 15 12 0 6 3 8 8 4
4 -4 7 -13 7 -19 0 -7 16 -20 35 -30 20 -10 25 -15 11 -11 -16 4 -21 3 -17 -5
4 -6 2 -20 -5 -32 -7 -14 -7 -19 0 -15 16 11 51 -12 45 -29 -4 -8 -2 -15 4
-15 6 0 13 6 15 13 6 12 11 -17 8 -41 -1 -8 7 -22 18 -31 21 -18 29 -37 12
-26 -5 3 -12 1 -15 -4 -3 -5 4 -11 15 -14 13 -4 18 -10 14 -17 -4 -7 -1 -17 6
-22 11 -7 11 -11 2 -15 -8 -3 -3 -13 14 -29 17 -15 21 -24 12 -25 -12 0 -12
-2 0 -6 11 -5 11 -7 0 -14 -11 -7 -10 -9 4 -9 10 0 16 -4 12 -9 -3 -5 0 -13 6
-16 6 -4 8 -18 5 -31 -4 -13 -3 -24 2 -24 5 0 9 -6 10 -12 7 -58 16 -79 30
-73 12 4 13 3 2 -10 -8 -9 -9 -20 -4 -27 5 -7 9 -28 9 -45 0 -18 4 -33 10 -33
5 0 3 -4 -5 -9 -8 -6 -18 -7 -24 -4 -5 3 -6 1 -2 -6 6 -8 0 -11 -21 -8 -15 3
-27 9 -26 14 1 6 -8 10 -20 9 -23 -1 -47 15 -47 33 0 6 -8 11 -18 11 -10 0
-28 9 -40 20 -12 11 -29 20 -39 20 -11 0 -19 8 -20 18 -1 9 -9 37 -18 62 -9
25 -17 52 -17 60 0 8 -5 33 -10 55 -14 52 -16 95 -7 122 6 17 5 21 -5 17 -8
-3 -17 0 -22 7 -5 8 -3 10 6 4 8 -5 11 -3 8 6 -3 8 -10 13 -16 12 -6 -2 -9 4
-6 11 3 8 12 12 20 9 8 -3 14 0 14 6 0 6 -7 11 -15 11 -9 0 -12 6 -9 15 3 8
-1 22 -10 31 -11 10 -14 24 -10 38 9 28 12 43 7 34 -8 -13 -20 -9 -20 7 0 8 4
15 9 15 5 0 6 9 3 20 -6 19 8 27 39 21 5 -1 4 5 -4 13 -10 13 -10 16 4 16 9 0
16 -7 16 -15z m340 -880 c0 -8 0 -18 -1 -21 0 -4 5 -11 13 -15 10 -7 10 -9 0
-9 -10 0 -10 -5 -2 -20 8 -15 8 -20 -2 -21 -10 0 -10 -2 0 -6 6 -2 9 -9 6 -15
-4 -6 -1 -14 7 -18 10 -7 10 -11 0 -24 -16 -19 -8 -46 14 -46 8 0 15 -4 15
-10 0 -5 -6 -7 -14 -4 -19 7 -12 -41 9 -63 16 -15 15 -18 -14 -44 -32 -28 -41
-45 -18 -36 7 3 28 -4 47 -14 24 -12 29 -18 16 -19 -13 0 -17 -5 -13 -20 3
-11 1 -20 -4 -20 -8 0 -13 14 -11 31 1 4 -13 6 -31 5 -29 0 -32 2 -30 27 1 15
-2 25 -6 22 -5 -2 -14 2 -21 10 -10 12 -10 15 1 15 12 0 12 2 1 9 -8 4 -14 12
-15 17 -1 5 -6 8 -10 6 -5 -1 -6 2 -2 7 3 6 -3 18 -14 28 -15 13 -17 19 -8 25
8 5 4 8 -10 8 -13 0 -23 4 -23 10 0 5 6 7 14 4 11 -4 13 0 9 18 -4 13 -11 26
-17 30 -8 5 -7 8 2 8 6 0 12 5 12 11 0 5 -5 7 -11 3 -7 -4 -3 8 7 26 10 17 29
36 40 40 15 6 22 17 22 35 0 25 15 44 35 45 4 0 7 -7 7 -15z m3571 -294 c16
-12 44 -32 63 -45 42 -28 57 -43 78 -76 20 -31 13 -87 -12 -102 -15 -9 -17
-22 -12 -73 6 -82 -6 -105 -57 -105 -30 0 -40 -4 -44 -20 -3 -11 -13 -20 -24
-20 -10 0 -42 -11 -71 -25 -95 -44 -130 -30 -158 61 -19 65 -18 86 11 128 13
20 20 36 15 36 -18 0 -70 83 -70 112 0 23 8 34 44 56 24 15 47 36 52 47 23 53
129 67 185 26z m-3396 -661 c55 -1 126 -19 136 -33 6 -9 67 -35 97 -41 7 -1
18 -8 24 -14 7 -7 17 -12 22 -12 10 0 74 -23 159 -58 68 -28 67 -73 0 -115
-32 -20 -57 -26 -143 -31 -163 -10 -209 -23 -309 -82 -74 -44 -122 -48 -159
-11 -26 26 -36 84 -22 122 5 12 22 29 39 36 l30 13 -54 51 c-31 29 -69 78 -89
115 l-34 66 126 -3 c70 -1 150 -3 177 -3z m-889 -62 c-1 -15 8 -27 27 -36 15
-7 27 -17 27 -23 0 -5 21 -23 47 -39 26 -17 59 -41 73 -55 14 -13 44 -42 68
-64 38 -35 43 -44 40 -78 -2 -29 -9 -41 -31 -53 -28 -15 -29 -14 -60 21 -53
60 -113 96 -170 105 -28 4 -56 7 -60 6 -13 -4 -60 25 -99 60 -21 18 -50 41
-64 52 -20 14 -23 20 -13 27 8 5 25 9 38 9 20 0 21 2 11 15 -11 13 -6 18 26
31 21 9 61 16 89 17 27 0 44 2 36 5 -11 4 -11 6 0 13 8 5 15 9 15 9 1 0 1 -10
0 -22z m-1362 -302 c14 -8 32 -29 42 -45 10 -16 42 -42 72 -58 53 -28 98 -75
88 -92 -3 -5 5 -20 19 -35 21 -23 22 -29 13 -58 -6 -18 -11 -43 -12 -55 -1
-15 -7 -23 -18 -23 -10 0 -33 -7 -52 -16 l-34 -17 19 -37 c11 -21 24 -51 29
-69 7 -26 6 -33 -12 -42 -23 -12 -87 -7 -132 10 -28 11 -29 12 -23 78 5 62 3
69 -24 103 -16 19 -30 51 -32 69 -3 29 -11 38 -53 60 -78 42 -184 112 -184
122 0 4 9 13 20 19 11 6 19 14 19 18 -4 23 5 34 41 48 22 9 40 20 40 24 0 22
140 19 174 -4z m696 -1 c230 -84 287 -110 295 -137 4 -10 1 -43 -6 -74 -12
-51 -16 -57 -53 -74 -49 -22 -111 -30 -167 -23 -31 5 -43 12 -50 29 -4 13 -13
24 -18 24 -5 0 -17 7 -25 16 -14 14 -14 18 1 40 19 30 7 62 -36 87 -15 9 -56
43 -91 76 l-63 60 89 -6 c49 -3 105 -11 124 -18z m-1259 -345 c57 -59 73 -96
72 -161 -1 -62 -39 -151 -72 -169 -27 -14 -86 -13 -125 4 -18 8 -54 39 -80 71
l-46 57 1 81 c1 45 4 93 8 107 9 32 56 49 140 49 62 1 65 0 102 -39z m898
-1189 c6 -10 8 -21 5 -23 -2 -3 2 -25 10 -49 8 -24 17 -57 20 -74 2 -16 5 -30
6 -30 5 0 15 -61 25 -152 6 -54 4 -67 -14 -97 -13 -21 -35 -39 -55 -46 -72
-23 -95 17 -85 147 4 48 10 142 13 207 4 66 9 123 12 128 10 15 53 8 63 -11z
m1221 -1141 l60 -61 -30 -29 c-24 -23 -40 -30 -70 -30 -48 0 -57 -14 -65 -96
-8 -71 -21 -84 -91 -84 -110 0 -130 29 -119 169 8 105 22 125 98 136 27 3 69
17 94 31 25 13 50 24 55 24 4 0 35 -27 68 -60z m-819 -216 c5 -15 7 -29 4 -33
-11 -10 -710 -109 -718 -101 -14 13 10 21 110 36 72 11 102 20 124 38 55 47
109 59 206 50 92 -9 184 -7 193 5 6 7 51 29 63 30 4 1 12 -11 18 -25z m5654
-2650 c205 -32 221 -55 101 -153 -62 -51 -75 -67 -85 -104 -6 -24 -19 -53 -28
-64 -25 -28 -118 -64 -178 -69 -27 -2 -106 -8 -175 -14 -69 -5 -185 -12 -259
-15 -74 -3 -137 -7 -140 -10 -12 -7 -217 -21 -441 -29 -76 -3 -103 13 -136 81
-34 70 -44 78 -112 99 -42 12 -60 13 -85 5 -63 -23 -104 -60 -132 -122 -15
-33 -34 -63 -43 -66 -10 -4 -31 -18 -48 -33 -21 -18 -48 -29 -80 -33 -74 -10
-293 -26 -439 -32 -71 -3 -179 -10 -240 -14 -60 -4 -166 -7 -234 -5 -120 3
-124 3 -152 30 -16 16 -35 45 -41 66 -13 43 -38 63 -102 80 -85 22 -157 -19
-243 -139 -52 -73 -67 -83 -121 -83 -21 0 -79 -6 -128 -14 -49 -8 -160 -17
-246 -19 -86 -3 -161 -8 -166 -11 -14 -8 -217 -21 -334 -21 -106 0 -115 4
-133 57 -8 26 -16 32 -33 31 -17 -2 -22 2 -22 21 0 29 -22 54 -55 62 -15 4
-25 15 -28 33 -6 27 4 88 17 110 9 13 39 14 51 2 16 -16 116 -27 185 -20 119
12 184 20 265 30 71 8 293 34 515 59 41 5 96 13 122 18 37 7 57 5 102 -10 51
-18 58 -18 101 -4 25 9 63 16 85 16 21 0 51 5 65 10 15 6 95 14 178 20 84 5
267 21 407 34 140 14 305 30 365 36 61 5 151 15 201 21 70 9 104 8 148 -2 62
-14 149 -4 261 31 82 25 99 28 185 35 213 16 920 91 1075 114 65 9 92 7 230
-15z m-6982 -596 c-36 -119 -35 -130 3 -142 21 -6 21 -9 9 -59 -7 -29 -18 -78
-25 -110 -10 -51 -17 -62 -50 -85 -22 -15 -44 -38 -49 -52 -5 -14 -10 -19 -10
-11 -1 8 -9 23 -18 34 -37 40 -12 289 32 322 7 6 19 31 25 55 21 77 37 100 70
100 l29 0 -16 -52z"/>
<path d="M4736 16119 c-64 -59 -131 -155 -146 -209 -27 -100 59 -134 145 -58
82 71 139 268 89 305 -10 7 -21 13 -25 13 -4 0 -32 -23 -63 -51z"/>
<path d="M16347 19178 c36 -211 228 -1411 292 -1833 52 -337 142 -909 205
-1295 19 -118 60 -368 90 -555 31 -187 65 -389 76 -450 24 -134 45 -261 115
-695 30 -184 62 -373 70 -420 13 -76 56 -340 116 -715 11 -71 33 -209 49 -305
16 -96 43 -265 60 -375 17 -110 38 -243 46 -295 9 -52 22 -138 29 -190 17
-118 25 -162 70 -425 57 -332 92 -551 106 -650 5 -38 22 -144 38 -235 57 -324
122 -752 151 -1005 6 -49 15 -103 20 -120 5 -16 11 -66 13 -111 3 -45 10 -103
16 -130 12 -52 60 -294 135 -684 37 -191 77 -426 111 -655 3 -16 9 -57 15 -90
17 -106 49 -317 65 -430 8 -60 17 -126 20 -145 3 -19 12 -82 20 -140 8 -58 20
-136 25 -175 6 -38 13 -88 16 -110 2 -22 29 -211 59 -420 61 -429 91 -645 135
-985 17 -129 33 -246 35 -260 3 -21 17 -132 50 -395 3 -22 11 -89 19 -150 8
-60 17 -141 21 -180 3 -38 8 -79 10 -90 2 -11 0 -27 -5 -35 -8 -12 -10 -11
-11 5 l0 20 -9 -20 c-8 -19 -9 -19 -9 -1 -1 11 -4 16 -8 13 -8 -9 -11 -57 -3
-57 6 0 6 -3 13 -81 2 -25 7 -51 11 -57 4 -7 2 -12 -3 -12 -6 0 -11 6 -11 14
0 7 -6 26 -14 41 -19 36 -29 17 -22 -43 6 -49 9 -108 7 -129 -1 -7 -8 -13 -16
-13 -8 0 -15 6 -15 13 0 29 -47 159 -54 149 -5 -9 -12 -7 -24 5 -9 9 -17 19
-17 22 0 9 -25 91 -42 135 -8 22 -23 47 -34 57 -10 9 -19 24 -19 33 0 9 -5 16
-11 16 -5 0 -7 5 -4 10 3 6 2 10 -3 10 -5 0 -9 6 -9 13 -1 6 -8 39 -17 72 -8
33 -17 69 -19 80 -2 11 -7 27 -10 35 -10 28 -45 194 -53 260 -2 14 -6 39 -10
55 -3 17 -14 77 -24 135 -23 129 -26 143 -41 200 -6 25 -12 51 -12 58 0 6 -4
12 -9 12 -4 0 -8 12 -8 26 0 14 -9 37 -20 51 -11 14 -17 29 -15 33 3 5 1 11
-5 15 -5 3 -10 16 -10 29 0 12 -3 25 -6 29 -4 3 -17 36 -30 73 -13 37 -27 70
-32 73 -25 17 -73 105 -78 143 -5 38 -3 46 24 71 25 25 30 26 42 12 16 -19 39
-19 46 0 4 9 18 15 33 14 27 -1 71 7 78 15 4 4 -5 57 -23 136 -3 14 -8 36 -10
50 -10 54 -37 188 -49 245 -8 33 -41 197 -74 365 -33 168 -65 324 -71 348 -5
23 -10 51 -10 61 0 10 -9 30 -20 43 -15 19 -21 46 -24 109 -3 46 -12 122 -21
169 -8 47 -22 121 -30 165 -8 44 -18 91 -21 105 -33 143 -72 432 -73 545 -1
70 -6 149 -11 174 -5 25 -12 64 -15 86 -12 91 -16 111 -22 130 -4 11 -8 34
-10 50 -7 68 -23 169 -30 189 -7 24 -8 25 -22 121 -6 39 -12 111 -14 162 -3
80 -6 96 -30 130 -32 46 -32 43 -11 91 10 20 19 46 21 57 6 30 -39 397 -56
462 -6 21 -10 47 -10 58 1 11 -1 30 -4 42 -3 12 -8 48 -12 80 -3 32 -8 72 -11
88 -7 45 -23 135 -30 175 -6 35 -7 43 -19 135 -23 179 -78 472 -99 527 -44
117 -49 124 -103 132 -39 5 -50 3 -60 -11 -12 -15 -18 -15 -61 -4 -26 6 -55
10 -63 7 -8 -2 -30 -7 -49 -10 -25 -4 -31 -3 -20 4 13 9 13 10 0 10 -26 1 33
29 63 30 18 0 27 5 28 18 1 19 -2 56 -5 59 -1 1 -31 -6 -67 -17 -35 -10 -100
-26 -143 -36 -43 -9 -102 -27 -130 -39 -44 -20 -51 -27 -53 -53 -2 -24 1 -30
12 -25 8 3 15 1 15 -4 0 -5 -21 -14 -47 -20 -89 -19 -357 -95 -488 -138 -71
-24 -159 -50 -195 -59 -210 -51 -355 -88 -378 -97 -15 -6 -56 -16 -92 -24 -36
-7 -200 -45 -365 -84 -165 -39 -350 -83 -412 -97 l-112 -27 -7 -45 c-4 -24 -3
-74 0 -111 4 -36 9 -79 10 -96 2 -16 6 -58 10 -91 6 -44 4 -64 -4 -69 -20 -12
-29 8 -34 80 -6 81 -31 223 -47 273 -11 33 -13 34 -51 28 -21 -4 -132 -29
-246 -56 -632 -151 -798 -194 -809 -208 -7 -9 -16 -32 -19 -51 -4 -20 -14 -47
-22 -60 l-16 -23 -28 56 c-28 55 -46 66 -76 47 -11 -7 -9 -24 13 -92 14 -46
34 -102 45 -124 26 -55 34 -101 19 -110 -15 -10 -48 32 -49 60 0 20 -76 185
-85 185 -2 0 -2 -9 0 -20 3 -14 -3 -22 -20 -26 -26 -6 -39 -39 -69 -164 -25
-109 -29 -140 -17 -140 6 0 8 -7 4 -16 -4 -10 5 -26 24 -43 20 -18 31 -37 31
-54 0 -15 5 -48 12 -72 15 -53 40 -60 57 -15 13 35 29 39 38 10 7 -23 24 -26
48 -7 11 8 17 30 18 72 4 107 20 111 39 10 l12 -65 52 6 c60 7 1090 230 1159
250 16 5 17 16 13 103 -4 88 3 137 17 115 2 -5 10 -43 17 -84 16 -105 18 -110
44 -110 12 0 168 31 347 70 178 38 363 74 410 79 52 6 112 21 150 36 42 18 74
25 98 22 20 -2 70 4 111 14 41 10 212 46 380 79 168 34 407 83 532 111 125 27
229 49 232 49 4 0 6 23 6 51 0 48 1 51 23 45 12 -3 75 -13 140 -23 64 -9 117
-20 117 -24 0 -6 -217 -145 -243 -155 -9 -3 -16 8 -23 39 l-9 44 -290 -62
c-159 -35 -360 -79 -445 -99 -241 -57 -423 -96 -445 -96 -11 0 -47 -14 -80
-30 -50 -25 -67 -29 -105 -24 -35 5 -64 0 -120 -19 -78 -27 -168 -49 -360 -91
-63 -13 -178 -38 -255 -55 -77 -17 -237 -51 -355 -75 -358 -75 -1012 -215
-1060 -228 -53 -15 -60 -22 -60 -68 0 -19 -7 -46 -14 -59 -13 -24 -14 -23 -20
25 -9 64 -18 77 -47 72 -22 -3 -24 -8 -31 -88 -11 -137 -21 -176 -42 -172 -16
3 -18 -1 -13 -25 4 -15 12 -56 18 -90 10 -53 15 -62 32 -60 13 1 27 -9 40 -30
l19 -33 -36 0 c-29 0 -37 4 -41 23 -4 13 -18 28 -35 34 -35 13 -55 74 -47 144
4 32 -3 76 -22 150 l-28 104 -39 -1 c-49 -1 -185 -29 -268 -54 l-63 -20 -11
-51 c-7 -28 -12 -63 -12 -77 0 -22 -5 -27 -25 -28 -31 -2 -55 -26 -51 -50 2
-11 -2 -24 -9 -31 -10 -9 -20 -6 -46 13 -41 30 -53 30 -47 0 4 -18 0 -24 -16
-24 -12 -1 -28 -2 -36 -3 -8 -1 -28 -1 -45 0 -29 2 -29 2 -6 12 19 8 21 12 11
24 -14 17 -57 20 -94 6 -21 -9 -24 -16 -24 -55 0 -45 1 -46 39 -56 21 -6 39
-14 39 -18 0 -4 23 -22 50 -40 28 -18 48 -37 45 -42 -3 -5 -30 -14 -61 -20
-70 -15 -95 -38 -85 -77 9 -35 37 -49 136 -66 67 -11 80 -16 77 -31 -3 -14 1
-16 18 -11 21 7 50 -9 50 -26 0 -5 -15 -9 -32 -8 -18 0 -53 -4 -78 -10 -76
-17 -146 3 -138 40 2 7 -5 15 -16 17 -16 3 -18 0 -12 -21 7 -29 4 -32 -41 -42
-29 -6 -33 -4 -33 14 0 18 -6 21 -44 21 -61 0 -76 8 -76 39 0 27 -14 56 -27
56 -4 1 -19 7 -32 14 -31 17 -43 0 -35 -49 13 -73 42 -99 114 -102 51 -2 52
-3 24 -15 -41 -17 -63 -15 -114 10 -43 21 -45 24 -50 74 -3 28 -8 54 -10 56
-3 3 -29 8 -58 11 -51 6 -53 5 -47 -14 4 -12 1 -28 -6 -37 -12 -14 -15 -10
-24 28 -10 40 -14 45 -45 49 -37 6 -51 25 -23 34 10 3 47 10 83 16 67 12 100
25 100 39 0 5 -27 25 -60 46 -45 28 -59 42 -57 59 2 19 -3 21 -48 22 -60 1
-125 -11 -219 -38 -65 -19 -144 -18 -132 1 6 9 -57 41 -79 41 -21 0 -19 -30 3
-31 19 -1 11 -4 -30 -13 -21 -5 -28 -12 -28 -30 0 -38 41 -58 105 -52 l55 5 6
-38 c6 -35 10 -39 58 -54 28 -9 75 -19 104 -23 29 -4 55 -10 57 -15 10 -16
-15 -19 -65 -8 -40 9 -54 8 -60 -1 -5 -9 -17 -7 -47 8 -47 24 -60 39 -65 72
-4 34 -33 36 -96 9 -70 -31 -93 -80 -47 -101 18 -8 22 -14 13 -19 -9 -6 -5
-15 15 -33 16 -15 24 -31 21 -40 -8 -20 26 -21 91 -5 24 6 50 9 57 6 22 -8
-55 -36 -83 -30 -15 3 -37 -1 -50 -8 l-24 -12 28 -12 28 -11 -21 -19 c-14 -13
-33 -18 -57 -17 -31 2 -34 1 -24 -12 7 -8 31 -18 54 -21 42 -7 57 -18 57 -44
0 -9 -8 -11 -27 -7 -23 5 -25 4 -10 -4 29 -18 21 -40 -15 -40 -44 0 -67 -15
-50 -32 6 -6 12 -21 12 -31 0 -17 -6 -19 -50 -15 -49 5 -50 4 -34 -13 14 -16
32 -19 106 -19 81 0 105 -8 77 -26 -6 -4 -30 -7 -53 -8 -47 -3 -92 -22 -101
-44 -7 -18 4 -82 14 -82 4 0 15 -6 25 -13 16 -12 17 -17 5 -38 -7 -13 -14 -30
-15 -38 -4 -22 -15 -27 -94 -46 -41 -10 -92 -26 -112 -37 -21 -10 -68 -25
-105 -34 -38 -8 -71 -18 -75 -22 -4 -4 -3 -38 3 -76 11 -83 3 -98 -37 -67 -23
18 -40 21 -131 21 -117 0 -149 -10 -133 -40 5 -10 10 -28 10 -39 0 -24 -28
-28 -79 -10 -38 13 -51 35 -51 84 0 46 -13 50 -88 31 -33 -9 -71 -16 -85 -16
-38 0 -48 -21 -53 -112 -8 -126 -8 -128 -16 -128 -5 0 -8 -12 -8 -26 0 -42
-20 -17 -67 85 -25 53 -58 124 -73 158 -16 34 -32 73 -35 86 -7 25 -29 37 -72
37 -27 0 -27 10 -9 -132 34 -262 37 -298 31 -308 -3 -5 -19 -10 -36 -10 -16 0
-29 -3 -29 -6 0 -3 15 -47 34 -98 49 -134 51 -148 16 -181 l-28 -27 -36 36
c-20 19 -47 60 -60 89 -13 30 -28 57 -33 60 -16 10 -202 -40 -215 -58 -4 -5
-8 -22 -8 -37 0 -17 -5 -28 -14 -28 -7 0 -19 -7 -26 -15 -15 -18 -96 -55 -121
-55 -10 0 -21 -5 -24 -10 -4 -7 -14 -5 -28 5 -27 19 -52 19 -81 0 -27 -18 -33
-13 -90 77 -27 43 -43 58 -59 58 -94 -2 -464 -99 -409 -108 12 -2 35 -10 49
-17 33 -17 29 -19 -92 -40 -152 -27 -163 -31 -158 -59 5 -22 1 -25 -49 -34
-29 -5 -80 -15 -114 -21 -99 -18 -107 -16 -149 34 -41 51 -61 53 -103 9 -13
-13 -27 -24 -31 -24 -5 0 -16 -19 -26 -42 -9 -23 -23 -47 -32 -53 -8 -6 -18
-26 -21 -44 -5 -24 -17 -38 -46 -54 -73 -41 -80 -51 -172 -257 -9 -19 -20 -43
-25 -52 -5 -10 -9 -39 -9 -65 0 -71 21 -265 30 -288 45 -103 59 -177 40 -200
-7 -8 -16 -12 -21 -9 -13 8 -11 -69 6 -234 14 -137 16 -145 42 -165 94 -73
203 -194 203 -226 0 -10 -11 -23 -24 -31 -28 -14 -25 -35 10 -63 13 -10 26
-27 29 -38 7 -20 12 -21 74 -14 83 9 406 61 744 120 142 25 263 45 268 45 5 0
9 -16 9 -35 0 -27 3 -33 15 -29 24 10 45 -15 45 -52 0 -34 0 -34 38 -28 l39 6
6 -67 c4 -37 8 -69 9 -71 2 -1 32 4 68 11 78 17 197 19 345 5 140 -14 200 -28
410 -95 233 -75 265 -96 75 -51 -189 46 -310 60 -536 60 -202 1 -212 0 -262
-23 l-52 -24 32 -32 c43 -40 149 -169 191 -231 67 -101 182 -259 189 -262 5
-2 8 -8 8 -14 0 -5 15 -28 34 -51 18 -23 35 -46 37 -52 3 -5 15 -28 29 -50 38
-61 34 -87 -8 -56 -15 10 -43 23 -62 29 -62 19 -178 70 -209 93 -28 20 -50 73
-37 86 5 6 43 13 79 16 23 2 21 17 -8 57 -14 19 -25 39 -25 45 0 19 -41 51
-101 79 -31 14 -60 26 -65 26 -6 0 -27 -16 -47 -35 l-37 -35 0 -89 c0 -109 9
-182 24 -186 6 -2 58 -18 116 -36 58 -17 113 -39 124 -49 15 -15 18 -33 18
-110 0 -50 -3 -94 -6 -97 -3 -3 -12 2 -21 11 -21 20 -25 20 -41 -2 -9 -11 -13
-13 -14 -4 0 7 -5 10 -10 7 -6 -4 -8 -10 -5 -15 3 -4 -2 -10 -10 -14 -8 -3
-12 -12 -9 -19 3 -8 -1 -17 -10 -20 -8 -3 -17 1 -20 8 -10 27 -33 5 -46 -45
-7 -27 -17 -47 -21 -44 -8 5 -7 -29 12 -246 5 -63 11 -162 14 -220 6 -117 23
-317 30 -340 2 -8 9 -64 15 -125 17 -183 49 -542 60 -675 43 -513 50 -607 49
-639 -1 -35 -35 261 -78 684 -33 321 -61 634 -66 756 -6 126 -24 319 -30 330
-3 3 -12 69 -20 145 -8 77 -19 155 -24 174 l-8 35 -8 -48 c-4 -26 -5 -82 -1
-125 3 -42 8 -135 11 -207 4 -71 10 -159 15 -195 21 -147 71 -716 90 -1025 11
-181 34 -490 50 -685 39 -460 138 -1563 145 -1618 6 -41 7 -42 42 -42 l36 0
-6 68 c-4 37 -9 114 -11 172 l-5 105 15 -140 c8 -77 17 -155 20 -172 l5 -33
4644 0 4645 0 0 5493 c0 3022 -3 5497 -8 5501 -4 4 -8 12 -8 17 -1 5 -2 10 -3
12 -2 2 -13 119 -15 150 0 9 -4 17 -8 17 -4 0 -8 15 -8 34 0 19 -6 37 -12 39
-10 4 -10 6 0 6 14 1 17 31 2 31 -6 0 -9 3 -8 8 1 4 -2 23 -5 42 -4 19 -9 54
-11 78 -3 24 -9 48 -12 54 -4 7 -2 8 4 4 16 -9 15 -5 -4 33 -8 17 -18 59 -20
94 -2 34 -7 70 -10 79 -17 56 -46 246 -48 315 -1 18 -4 33 -7 33 -6 0 -14 45
-24 130 -2 19 -10 65 -19 102 -8 36 -17 101 -20 143 -3 41 -8 80 -11 86 -4 5
-8 33 -10 61 -2 28 -8 54 -12 57 -8 6 -9 12 -16 91 -3 25 -7 52 -10 60 -3 8
-6 24 -7 35 -1 11 -2 36 -4 55 -1 19 -5 55 -9 80 -13 81 -19 124 -19 158 -1
17 -4 32 -7 32 -3 0 -6 23 -7 51 0 32 -6 54 -15 60 -9 6 -10 9 -2 9 7 0 10 6
8 13 -2 6 -6 28 -9 47 -9 54 -14 79 -21 90 -3 6 -2 10 3 10 6 0 6 15 1 42 -6
23 -8 47 -5 53 2 7 0 31 -5 54 -5 23 -11 67 -14 99 -2 31 -7 77 -10 102 -3 25
-6 55 -5 68 0 13 -4 21 -9 18 -8 -5 -6 42 3 86 2 9 0 18 -6 20 -5 2 -11 30
-14 63 -4 61 -11 120 -14 120 -5 0 -21 186 -20 234 0 18 -4 39 -11 47 -7 8 -9
29 -6 49 3 19 2 37 -3 40 -4 3 -8 24 -9 47 -2 56 -9 163 -11 163 -4 0 -11 43
-15 90 -10 121 -16 174 -25 230 -16 91 -19 122 -24 225 -2 52 -8 119 -12 150
-8 59 -8 65 -18 185 -4 44 -9 82 -12 84 -2 2 2 11 9 19 10 13 9 14 -2 7 -11
-6 -13 -4 -8 7 3 9 3 19 0 22 -6 5 -9 35 -18 156 -2 25 -4 46 -5 48 -7 7 -5
29 3 40 7 8 5 12 -5 12 -11 0 -14 12 -13 53 1 28 -3 68 -8 87 -6 24 -6 35 2
38 7 2 8 10 3 20 -5 9 -8 28 -8 42 1 14 -3 28 -9 33 -6 4 -4 11 5 17 11 7 12
12 3 21 -6 6 -9 18 -6 27 4 8 2 13 -3 9 -6 -3 -9 28 -9 79 1 64 -3 85 -14 89
-11 4 -10 8 5 20 10 8 14 15 9 15 -6 0 -11 12 -12 28 -1 15 -4 53 -6 84 -3 37
-1 57 5 55 6 -1 11 16 12 40 1 23 4 44 8 48 5 5 20 -40 22 -68 1 -4 8 -12 16
-17 8 -5 12 -10 8 -10 -4 0 -1 -17 6 -37 17 -43 41 -153 37 -167 -1 -5 3 -12
8 -16 6 -3 13 -24 15 -45 3 -22 7 -47 9 -55 2 -8 7 -33 12 -55 4 -22 14 -52
22 -67 7 -16 9 -28 4 -28 -6 0 -3 -16 5 -36 8 -20 13 -43 10 -50 -3 -8 -1 -14
5 -14 6 0 9 -7 6 -14 -3 -8 0 -28 8 -43 8 -16 15 -44 16 -63 2 -19 6 -40 11
-46 4 -6 10 -32 13 -58 2 -26 7 -51 10 -56 3 -6 9 -31 12 -57 3 -27 9 -52 13
-58 4 -5 13 -41 20 -80 7 -38 21 -108 33 -155 11 -47 20 -92 19 -100 0 -8 9
-53 20 -100 11 -47 22 -105 25 -130 2 -25 7 -52 10 -60 9 -21 9 -21 17 -65 4
-22 11 -58 16 -80 5 -22 12 -56 15 -75 3 -19 17 -84 30 -145 13 -60 31 -146
40 -190 9 -44 24 -109 32 -145 8 -36 18 -90 23 -120 5 -30 21 -107 36 -170 14
-63 29 -137 34 -165 11 -69 40 -214 50 -250 4 -16 8 1213 9 2733 l1 2762
-1429 0 -1428 0 4 -22z m-907 -10078 c0 -11 -18 -55 -40 -99 -22 -43 -40 -83
-40 -88 0 -16 -103 -159 -151 -210 -132 -140 -325 -291 -443 -348 -117 -56
-268 -100 -376 -110 -96 -9 -209 -9 -218 -1 -10 10 27 36 52 36 11 0 27 6 35
13 9 8 48 22 86 32 178 46 502 209 593 298 30 29 125 138 212 242 87 105 178
205 202 222 50 38 88 43 88 13z m-2679 -202 c1 -7 0 -31 -1 -52 l-2 -39 59 6
c51 5 56 4 39 -8 -10 -8 -42 -22 -70 -31 -55 -18 -105 -52 -105 -71 -1 -17
-18 -16 -24 1 -9 22 -57 29 -76 11 -22 -19 -41 -19 -41 0 0 8 17 23 38 34 20
10 46 28 56 40 11 12 27 21 36 21 20 0 32 23 24 43 -2 7 7 19 21 27 14 7 25
17 25 22 0 13 20 9 21 -4z m255 -158 c27 0 33 -19 7 -21 -10 -1 -3 -4 16 -8
31 -5 24 -9 -76 -39 -61 -18 -153 -37 -205 -43 -65 -6 -101 -15 -120 -29 l-26
-19 -16 24 c-28 42 -17 57 25 35 12 -7 30 -7 51 -1 25 7 28 9 11 10 -13 1 -23
4 -23 9 1 17 41 54 54 49 7 -3 36 1 62 9 56 16 182 33 202 28 8 -2 25 -4 38
-4z m-1076 -64 c0 -8 5 -18 10 -21 6 -4 9 -1 8 7 -4 17 29 12 62 -10 l25 -16
-33 -10 c-18 -5 -31 -14 -29 -20 2 -6 29 -24 60 -41 108 -57 122 -87 39 -83
-26 1 -103 -10 -172 -24 -69 -15 -151 -29 -183 -32 -50 -4 -57 -3 -46 10 9 11
7 14 -12 14 l-24 1 23 19 c28 23 159 66 230 76 37 5 52 11 55 25 4 13 0 19
-12 19 -21 0 -41 18 -36 34 2 6 6 23 9 39 7 28 26 38 26 13z m-480 -1799 c53
-40 149 -112 214 -160 276 -208 364 -315 234 -286 -102 23 -262 131 -398 268
-92 92 -190 216 -190 240 0 28 53 5 140 -62z m4721 -414 c85 -43 201 -109 259
-147 58 -38 137 -85 175 -105 70 -35 70 -35 205 -36 128 0 140 2 230 33 89 31
100 33 182 26 99 -7 170 5 235 42 49 28 77 30 154 8 85 -24 119 -58 179 -179
55 -112 54 -105 47 -280 -1 -41 18 -192 52 -405 25 -153 39 -293 45 -425 5
-107 28 -192 66 -243 27 -37 28 -88 2 -156 -20 -51 -86 -135 -128 -163 -54
-35 -141 -32 -214 7 -33 18 -55 3 -88 -59 -37 -67 -51 -179 -40 -301 11 -120
29 -330 34 -395 2 -33 9 -94 14 -135 10 -82 6 -667 -5 -715 -4 -16 -8 -43 -10
-60 -1 -16 -7 -42 -13 -56 -6 -15 -16 -45 -22 -68 -6 -22 -15 -41 -20 -41 -6
0 -10 -6 -10 -13 0 -15 -51 -63 -62 -59 -5 1 -8 -3 -8 -9 0 -7 -11 -9 -30 -6
-16 4 -31 3 -34 -2 -6 -9 -338 -7 -354 2 -5 4 -12 2 -14 -5 -4 -10 -10 -10
-31 -1 -18 9 -27 9 -29 1 -3 -8 -10 -7 -26 1 -15 8 -40 9 -75 4 -28 -4 -76 -7
-104 -8 -29 0 -53 -3 -53 -7 0 -4 -13 -3 -29 2 -16 4 -32 6 -35 3 -2 -3 -17
-6 -33 -8 -85 -10 -130 -17 -143 -22 -8 -3 -33 -7 -55 -10 -55 -6 -67 -11 -59
-24 5 -9 3 -9 -7 -3 -18 11 -65 17 -119 14 -14 -1 -44 1 -67 4 -28 4 -43 2
-43 -5 0 -11 -43 -2 -48 11 -4 12 -166 0 -174 -13 -6 -9 -8 -9 -8 0 0 13 -54
8 -75 -7 -5 -3 -17 -6 -25 -5 -8 1 -35 -5 -60 -12 -25 -7 -48 -13 -52 -13 -3
0 -29 47 -57 104 -55 113 -99 166 -136 166 -12 0 -28 6 -34 14 -19 23 -48 15
-89 -24 -37 -34 -92 -133 -92 -164 0 -9 -4 -16 -9 -16 -5 0 -12 -8 -16 -19 -3
-10 -19 -33 -35 -50 -17 -17 -27 -31 -24 -31 3 0 -3 -16 -15 -36 -12 -19 -21
-42 -21 -51 0 -9 -3 -13 -6 -10 -4 3 -16 1 -28 -5 -31 -17 -95 -27 -102 -16
-3 5 -11 5 -19 -2 -7 -6 -69 -11 -146 -12 -74 -1 -138 -4 -144 -7 -14 -8 -37
-7 -52 2 -8 5 -13 3 -13 -3 0 -7 -7 -10 -15 -6 -8 3 -15 2 -15 -3 0 -9 2 -9
-103 -14 -42 -3 -84 -10 -92 -17 -10 -8 -19 -9 -35 0 -16 9 -25 8 -36 0 -7 -7
-27 -10 -43 -8 -17 2 -28 1 -25 -4 3 -4 -5 -9 -18 -9 -84 -4 -122 -10 -127
-18 -3 -5 -27 -12 -54 -16 -26 -4 -50 -11 -53 -16 -3 -5 -25 -9 -50 -9 -24 0
-44 -4 -44 -9 0 -10 -19 -9 -37 2 -8 5 -13 4 -13 -2 0 -6 -7 -11 -15 -11 -8 0
-15 5 -15 11 0 5 -5 7 -12 3 -11 -7 -32 -8 -113 -3 -16 1 -56 -4 -88 -11 -32
-6 -61 -9 -64 -7 -2 3 -20 -1 -40 -9 l-35 -15 -39 42 c-21 23 -39 48 -39 56 0
7 -4 13 -9 13 -5 0 -19 16 -32 35 -13 19 -33 38 -44 41 -49 14 -115 50 -115
63 0 8 -2 12 -5 9 -3 -3 -19 6 -34 21 -59 55 -84 71 -109 71 -21 0 -24 2 -12
10 24 15 2 12 -30 -5 -17 -9 -30 -12 -30 -8 0 4 -5 2 -12 -5 -16 -16 -39 -15
-78 5 -29 14 -39 14 -74 3 -23 -7 -78 -13 -122 -14 -81 -1 -82 -1 -125 -42
-24 -22 -45 -51 -47 -64 -1 -13 -16 -52 -32 -87 -17 -35 -30 -69 -30 -76 0 -7
-6 -21 -14 -32 -7 -11 -13 -23 -12 -27 0 -4 -6 -15 -14 -25 -9 -10 -14 -26
-12 -36 2 -12 -4 -20 -17 -24 -12 -3 -21 -9 -21 -14 0 -20 -2 -25 -16 -41 -14
-14 -50 -29 -64 -26 -3 1 -16 -4 -29 -11 -14 -8 -21 -9 -17 -2 4 6 2 11 -3 11
-6 0 -11 -4 -11 -9 0 -12 -76 -12 -130 0 -25 6 -56 13 -69 15 -13 3 -32 9 -42
14 -10 6 -31 10 -48 10 -16 0 -33 5 -36 10 -3 6 -18 10 -33 10 -28 1 -72 30
-72 49 0 5 -6 14 -13 18 -7 4 -20 18 -28 29 -8 12 -17 22 -21 23 -5 1 -22 4
-38 8 -39 7 -34 23 11 38 32 11 32 12 12 19 -32 10 -29 31 7 46 31 13 39 33
19 46 -8 5 -6 10 5 16 28 16 1 46 -56 63 -66 19 -80 19 -104 -2 -27 -24 -61
-43 -77 -43 -14 0 -43 -44 -49 -74 -2 -16 3 -20 27 -22 52 -3 55 -4 55 -19 0
-8 -4 -15 -9 -15 -5 0 -12 -7 -15 -16 -4 -9 -2 -13 5 -8 8 4 7 0 0 -15 -9 -15
-21 -21 -49 -21 -20 0 -45 -7 -55 -14 -22 -17 -75 -5 -95 21 -14 19 -13 104 1
114 5 3 -4 19 -18 35 -37 40 -135 237 -151 304 -30 129 -31 130 -137 182 -10
5 -69 9 -130 8 -175 -2 -163 -3 -142 20 22 24 55 34 180 55 55 9 101 18 104
21 2 2 -6 43 -17 92 -12 48 -22 98 -22 109 0 26 31 38 58 24 35 -19 56 -8 74
39 13 33 15 53 8 80 -5 19 -9 46 -9 60 1 64 -12 267 -18 285 -3 11 -24 40 -45
65 l-40 45 5 82 c4 90 10 106 26 75 12 -23 58 -55 65 -44 2 4 -8 34 -24 65
-24 49 -27 63 -18 87 9 28 20 41 93 108 17 15 35 36 40 46 10 17 16 18 79 7
79 -14 104 -9 112 25 8 30 32 31 125 3 94 -29 189 -20 229 20 45 45 64 166 34
222 -10 21 -12 34 -5 43 7 8 4 82 -9 231 -15 177 -24 234 -44 290 -30 81 -34
140 -11 131 20 -7 20 53 0 120 -32 109 -23 178 30 234 13 14 25 39 27 55 3 33
-2 32 143 25 28 -1 88 5 135 13 47 9 130 22 186 31 56 8 128 24 160 34 60 20
173 47 254 60 68 11 65 31 -22 121 -168 171 -354 421 -314 421 2 0 27 -12 54
-26 80 -41 217 -161 352 -309 155 -169 208 -207 291 -213 52 -4 65 -1 91 18
28 21 35 22 65 11 30 -11 38 -10 69 8 19 12 52 21 73 21 21 0 78 7 127 15 49
8 141 19 205 23 107 8 121 11 163 40 52 34 101 47 238 62 50 6 125 20 167 31
247 68 369 89 516 89 55 0 162 7 237 17 126 15 142 15 194 1 55 -15 60 -15
107 3 30 12 61 18 77 14 45 -10 296 51 349 84 42 28 51 29 102 22 30 -4 68 -3
85 1 16 5 89 18 162 28 73 11 174 31 225 45 62 17 118 25 170 25 43 0 77 4 77
10 0 27 -243 178 -437 271 -122 59 -139 71 -128 89 16 26 77 7 226 -67z
m-5401 -244 c0 -15 -18 -63 -39 -106 -21 -43 -47 -96 -57 -118 l-18 -40 -6 40
c-3 22 -2 51 3 65 5 14 11 35 12 48 2 12 12 41 23 65 11 23 23 53 27 67 4 14
13 28 19 32 15 10 36 -20 36 -53z m-2129 -499 c60 -19 129 -66 129 -87 0 -21
-55 -33 -145 -33 l-94 0 -16 30 c-20 38 -19 69 2 92 21 23 46 23 124 -2z
m1834 -1331 c89 -62 117 -96 128 -157 8 -37 -9 -50 -41 -33 -17 9 -162 211
-162 226 0 8 35 -8 75 -36z m-542 -497 c65 -44 93 -68 85 -74 -9 -5 -6 -8 7
-8 18 0 20 -5 17 -35 -2 -19 -1 -43 4 -52 4 -10 8 -30 9 -45 2 -15 6 -35 10
-45 5 -10 9 -24 11 -31 4 -21 34 -62 44 -62 6 0 10 -5 10 -11 0 -5 -4 -8 -9
-5 -5 3 -8 -12 -7 -33 0 -22 4 -37 9 -34 4 2 7 -1 7 -6 0 -6 -8 -11 -17 -11
-16 -1 -16 -2 -2 -13 9 -7 14 -18 12 -24 -3 -7 0 -13 5 -13 6 0 8 -9 5 -20 -4
-15 0 -20 13 -21 17 -1 17 -2 2 -6 -10 -3 -18 -14 -18 -26 0 -18 2 -19 10 -7
5 8 10 10 10 4 0 -6 -3 -14 -7 -18 -4 -3 -8 -16 -10 -27 -3 -22 -40 -77 -62
-95 -18 -14 -39 10 -61 66 -8 19 -29 62 -47 95 -18 33 -38 72 -44 88 -6 15
-17 27 -24 27 -15 0 -18 12 -50 260 -14 107 -28 210 -31 229 -8 40 -16 43 119
-47z m787 -522 c0 -29 -46 -150 -100 -263 -75 -160 -239 -371 -267 -344 -2 3
20 36 51 73 31 37 56 74 56 82 0 7 5 23 12 35 7 12 13 30 15 41 2 10 13 30 26
45 12 15 30 47 41 71 10 25 23 56 30 69 6 13 10 32 8 41 -2 10 7 35 19 56 39
71 63 109 73 116 15 10 36 -3 36 -22z m6697 -1229 c32 -10 85 -26 118 -36 123
-34 133 -46 142 -164 l5 -80 -50 -49 c-88 -86 -208 -137 -340 -147 -154 -10
-500 -33 -607 -39 -49 -3 -164 -10 -255 -16 -91 -5 -235 -12 -320 -15 -85 -3
-170 -8 -187 -11 -27 -4 -48 5 -124 53 -143 90 -149 98 -149 182 l0 71 48 45
c27 26 58 46 72 47 14 0 42 2 63 4 21 1 50 5 65 9 15 4 54 9 87 10 33 2 85 5
115 9 47 5 260 23 490 42 36 3 80 9 98 14 19 5 39 7 47 4 7 -3 39 0 72 6 32 6
99 15 148 20 131 13 242 29 310 44 83 19 87 18 152 -3z m-2362 -205 c17 -3 48
-10 70 -16 22 -6 45 -12 50 -13 36 -9 145 -68 153 -84 15 -27 25 -89 18 -110
-8 -25 -157 -152 -211 -181 -55 -29 -128 -49 -204 -56 -36 -4 -96 -11 -135
-16 -89 -12 -140 -17 -241 -25 -44 -4 -90 -8 -102 -10 -30 -5 -192 -23 -268
-30 -33 -3 -76 -7 -95 -9 -19 -3 -78 -7 -130 -10 -192 -11 -266 -17 -288 -22
-34 -7 -92 25 -114 63 -11 18 -24 33 -28 33 -4 0 -32 18 -61 40 -67 50 -100
56 -195 35 -73 -16 -81 -21 -138 -79 -34 -34 -72 -75 -86 -91 -27 -31 -106
-71 -159 -80 -75 -13 -233 -27 -356 -31 -310 -10 -364 -13 -425 -28 -61 -14
-132 -19 -465 -31 l-140 -5 -20 27 c-11 16 -36 43 -55 62 -159 153 -175 174
-152 204 5 6 12 23 16 37 17 67 78 96 191 93 86 -3 375 29 465 52 30 7 80 16
110 20 30 3 66 8 80 10 264 35 730 48 1024 29 100 -6 111 -5 123 12 8 11 17
18 21 16 13 -6 91 9 97 18 11 17 109 41 190 46 44 3 91 7 105 9 14 3 52 7 85
10 33 3 70 8 83 11 13 2 67 7 120 9 53 3 122 8 152 11 30 4 69 8 85 9 50 4
259 25 450 47 99 11 212 22 250 25 39 3 72 7 73 8 2 2 9 2 15 0 7 -2 26 -6 42
-9z"/>
<path d="M16635 5779 c-48 -13 -115 -78 -141 -133 -63 -136 10 -300 151 -341
104 -31 201 6 263 100 116 175 15 386 -183 384 -33 0 -74 -5 -90 -10z"/>
<path d="M14625 5483 c-57 -12 -91 -29 -127 -61 -69 -62 -93 -135 -77 -231 15
-93 72 -157 162 -182 78 -21 187 35 244 125 38 60 44 163 13 230 -26 53 -82
101 -133 111 -18 4 -39 8 -47 9 -8 2 -24 1 -35 -1z"/>
<path d="M12671 5199 c-54 -10 -86 -31 -111 -71 -16 -27 -19 -47 -16 -142 7
-207 28 -246 132 -246 149 0 269 194 208 338 -38 92 -120 139 -213 121z"/>
<path d="M16325 4033 c-155 -35 -313 -176 -366 -327 -44 -126 -43 -240 2 -361
24 -64 91 -158 140 -198 19 -15 39 -31 45 -36 57 -46 197 -81 279 -70 149 20
303 150 388 326 36 76 41 96 45 172 7 161 -38 285 -142 386 -84 82 -170 116
-288 114 -46 -1 -92 -3 -103 -6z"/>
<path d="M14060 3727 c-149 -50 -294 -204 -324 -342 -14 -68 -14 -153 0 -214
49 -215 249 -369 449 -345 86 10 158 47 234 124 160 160 197 366 102 574 -39
87 -90 140 -173 180 -63 30 -78 34 -161 34 -51 0 -108 -5 -127 -11z"/>
<path d="M11975 3481 c-74 -19 -123 -60 -191 -157 -88 -127 -115 -226 -96
-354 23 -161 119 -279 269 -329 370 -125 676 301 469 653 -47 79 -120 140
-211 173 -46 16 -196 25 -240 14z"/>
<path d="M5010 18572 c-8 -2 -39 -15 -68 -28 -28 -13 -71 -26 -95 -30 -94 -13
-211 -61 -352 -145 -115 -69 -161 -119 -154 -168 4 -27 58 -65 121 -85 28 -8
58 -67 58 -111 0 -52 -25 -150 -49 -189 -16 -26 -18 -44 -14 -107 4 -51 2 -79
-6 -83 -30 -19 2 -128 43 -147 39 -18 182 29 348 114 157 80 211 102 276 112
68 11 102 49 161 178 49 110 51 116 51 205 0 108 -30 248 -66 309 -13 23 -39
52 -57 64 -17 13 -35 29 -40 36 -4 7 -14 10 -21 7 -8 -3 -32 10 -53 29 -42 38
-61 46 -83 39z m94 -258 c10 -9 16 -33 16 -57 0 -36 -7 -49 -51 -97 -27 -30
-63 -81 -80 -112 -32 -63 -44 -72 -107 -82 -24 -4 -76 -18 -115 -31 -106 -37
-167 -30 -167 19 0 38 33 68 121 111 82 39 85 42 114 102 37 76 56 97 120 134
57 33 124 39 149 13z"/>
<path d="M11600 14926 c-114 -36 -935 -288 -1275 -392 -257 -78 -393 -122
-380 -123 16 -1 578 166 785 233 41 14 226 70 410 126 521 158 559 170 565
180 3 6 5 10 3 9 -2 0 -50 -15 -108 -33z"/>
<path d="M10811 14634 c-57 -19 -106 -36 -108 -38 -2 -2 23 -30 56 -62 55 -54
64 -69 70 -126 2 -13 41 -29 54 -21 19 12 47 14 47 3 0 -18 19 -11 66 25 25
19 52 35 59 35 8 0 16 4 19 9 3 5 -6 9 -20 9 -31 0 -97 72 -104 116 -3 17 -11
30 -18 29 -8 -2 -9 4 -2 21 8 22 4 37 -9 35 -3 -1 -53 -16 -110 -35z"/>
<path d="M10646 14584 c-3 -8 -9 -13 -13 -11 -5 3 -18 1 -30 -4 -19 -7 -23
-15 -22 -51 1 -24 5 -56 8 -73 l8 -30 10 40 c6 22 14 55 18 73 15 71 25 12 18
-106 -5 -94 -9 -122 -20 -122 -7 0 -25 -7 -38 -16 -27 -17 -24 -38 10 -66 28
-24 35 -22 35 9 0 51 17 9 39 -92 11 -56 21 -113 21 -128 l0 -26 -60 25 c-33
15 -66 24 -74 21 -8 -3 -27 -25 -42 -47 -24 -35 -26 -45 -16 -61 7 -11 10 -24
7 -30 -8 -12 19 -6 148 33 54 16 97 32 95 36 -21 42 -29 94 -48 327 -12 149
-24 280 -27 293 -6 26 -18 29 -27 6z"/>
<path d="M10725 14508 l6 -33 -16 28 c-9 16 -18 27 -20 25 -2 -2 5 -98 15
-213 11 -116 20 -219 20 -229 0 -35 18 -4 29 49 10 50 10 50 7 -21 -2 -39 -9
-82 -16 -95 -10 -17 -10 -24 -1 -27 6 -2 11 -10 11 -18 0 -16 16 -18 56 -5 16
5 62 20 102 32 39 12 72 25 72 29 0 4 -11 15 -25 24 -20 13 -25 25 -24 54 0
20 3 31 6 25 2 -7 13 -13 24 -13 14 0 19 7 19 25 0 22 -4 25 -39 25 -43 0
-114 35 -137 69 -18 25 -12 27 21 5 l25 -16 0 44 c0 31 6 48 20 61 19 16 20
16 20 -6 1 -21 1 -22 15 -3 24 32 18 42 -21 38 -49 -6 -84 27 -84 79 0 31 -6
43 -37 68 -48 39 -56 39 -48 -1z"/>
<path d="M10320 14485 c-14 -8 -58 -22 -99 -31 -64 -15 -72 -18 -57 -29 12
-10 14 -15 5 -20 -8 -6 -10 -39 -6 -119 l5 -111 -13 98 c-7 54 -15 100 -18
103 -2 3 -8 -8 -12 -23 -7 -25 -8 -26 -15 -8 -4 12 -2 31 7 48 18 36 12 42
-24 24 -15 -8 -58 -24 -95 -36 -70 -23 -78 -32 -53 -65 13 -17 12 -21 -3 -32
-22 -16 -10 -27 33 -30 53 -5 90 -29 125 -84 29 -45 32 -55 25 -98 -3 -26 -15
-62 -26 -81 -19 -31 -19 -35 -3 -52 9 -10 26 -22 38 -25 11 -4 27 -14 34 -23
11 -13 12 2 7 94 l-6 110 20 -32 c13 -20 26 -30 35 -27 12 5 90 -65 81 -74 -8
-8 -48 12 -81 40 -31 28 -34 28 -34 10 0 -42 22 -124 35 -128 11 -4 11 -10 -1
-32 -18 -36 -7 -38 69 -14 34 10 90 27 124 37 l62 18 -6 46 c-5 43 -3 48 26
69 17 12 31 31 31 42 0 12 8 20 22 22 23 3 68 68 68 100 0 9 -16 26 -35 38
-48 29 -49 72 -3 91 l31 13 -39 33 c-71 62 -80 66 -115 54 -29 -10 -34 -8 -65
23 -19 19 -34 43 -34 55 0 24 -6 25 -40 6z"/>
<path d="M11065 14210 c-10 -11 -26 -22 -37 -26 -10 -3 -18 -11 -17 -17 4 -36
-3 -54 -26 -63 l-24 -9 19 -24 20 -23 105 28 c58 16 105 34 105 41 0 11 -109
113 -121 113 -3 0 -14 -9 -24 -20z"/>
<path d="M9424 14066 c3 -9 8 -22 12 -30 3 -9 -10 -17 -43 -26 -26 -8 -50 -16
-53 -19 -3 -3 -18 -13 -34 -21 -16 -8 -41 -33 -55 -54 -60 -90 -55 -200 9
-244 30 -20 43 -23 93 -19 181 16 300 224 205 360 -13 18 -15 27 -7 27 7 0 9
3 5 7 -4 4 -22 6 -41 5 -19 -2 -49 5 -66 14 -29 15 -31 15 -25 0z"/>
<path d="M8910 13874 c-142 -61 -189 -254 -76 -308 74 -35 181 24 233 129 15
29 25 128 14 144 -9 14 -94 34 -85 20 3 -5 -14 -18 -38 -29 -24 -11 -56 -32
-72 -46 l-28 -27 7 24 c4 13 26 43 48 67 23 23 39 42 37 42 -3 -1 -21 -8 -40
-16z"/>
<path d="M8480 13736 c0 -9 -16 -23 -37 -32 -21 -9 -51 -23 -68 -32 -74 -38
-128 -124 -129 -204 0 -44 3 -53 32 -79 26 -23 41 -29 80 -29 136 0 255 137
237 275 -8 65 -35 102 -82 111 -26 5 -33 3 -33 -10z"/>
<path d="M10737 13583 c-27 -8 -57 -23 -67 -33 -18 -18 -17 -19 21 -44 21 -15
39 -30 40 -34 9 -85 1 -94 -53 -56 -24 16 -52 44 -63 62 -18 29 -24 32 -55 28
-19 -2 -52 -12 -74 -21 -38 -16 -38 -16 -20 -37 l19 -20 3 20 c5 32 25 32 62
2 32 -26 35 -33 35 -82 0 -37 4 -52 13 -50 10 2 17 -21 10 -31 -2 -2 5 -11 15
-21 9 -10 17 -23 17 -30 0 -7 11 -23 25 -36 14 -13 23 -30 21 -37 -3 -7 -1
-13 4 -13 6 0 10 -7 10 -15 0 -20 17 -19 29 3 5 9 14 67 20 127 18 173 22 196
31 190 8 -5 7 21 -5 97 -3 19 1 31 13 37 23 14 7 12 -51 -6z"/>
<path d="M7990 13529 c-24 -18 -54 -44 -67 -59 -16 -19 -29 -26 -43 -23 -34 9
-50 -14 -50 -72 0 -102 77 -136 172 -76 56 36 94 97 103 168 13 96 -33 121
-115 62z"/>
<path d="M10772 13320 c-6 -63 -16 -169 -20 -235 -8 -107 -7 -125 10 -165 10
-25 30 -53 43 -63 l25 -18 0 34 c0 28 -34 459 -43 537 -1 14 -8 -27 -15 -90z"/>
<path d="M7495 13380 c-33 -21 -68 -47 -79 -57 -26 -26 -66 -90 -66 -107 0 -7
-6 -26 -14 -41 -13 -24 -13 -31 1 -52 43 -66 139 -57 221 21 72 67 97 171 59
244 -23 42 -46 41 -122 -8z"/>
<path d="M7044 13222 c-27 -21 -55 -51 -63 -65 -8 -15 -22 -29 -32 -32 -21 -7
-34 -57 -21 -82 36 -66 92 -67 166 -2 53 47 81 119 68 179 -7 30 -12 35 -38
38 -23 2 -43 -6 -80 -36z"/>
<path d="M11486 13083 c4 -27 8 -59 10 -73 1 -14 3 -25 4 -25 1 0 3 -28 4 -63
2 -35 8 -68 14 -74 11 -11 35 -2 27 12 -3 4 2 11 11 14 18 7 22 31 -42 -260
-24 -111 -44 -214 -44 -229 0 -15 -8 -34 -18 -43 -10 -10 -12 -13 -6 -9 14 9
18 -23 34 -284 l10 -167 67 -108 c36 -60 84 -136 105 -169 44 -68 35 -57 -71
79 -41 53 -76 94 -77 93 -7 -7 29 -213 39 -225 6 -8 12 -22 14 -32 7 -45 109
-280 121 -280 7 0 127 73 141 86 2 2 -1 9 -6 16 -6 7 -12 22 -15 34 -4 17 -1
21 15 20 15 -1 23 -11 29 -33 8 -31 72 -92 84 -81 3 3 -2 46 -10 94 -23 128
-18 148 6 27 16 -80 23 -101 35 -96 11 4 14 23 12 84 -1 44 0 82 3 84 3 3 10
-34 17 -82 11 -77 10 -89 -3 -99 -26 -18 -19 -58 24 -141 22 -43 44 -81 48
-85 5 -5 5 22 0 59 -4 38 -10 133 -13 213 -8 208 -51 579 -69 597 -4 4 -14 0
-22 -9 -14 -14 -15 -30 -4 -149 6 -74 13 -170 15 -214 3 -68 1 -60 -14 55 -21
155 -35 226 -55 275 -16 37 -46 48 -46 17 0 -29 19 -181 36 -284 20 -126 13
-150 -10 -33 -34 175 -68 304 -83 317 -15 12 -16 2 -10 -102 l5 -115 -14 65
c-26 121 -35 148 -55 153 -12 3 -19 14 -19 30 0 15 -9 31 -25 41 -33 22 -32
29 11 81 36 44 36 44 30 122 l-5 78 13 -68 c14 -73 31 -103 42 -74 5 14 -42
314 -90 569 -8 43 -17 113 -20 155 -8 109 -16 176 -21 181 -2 3 -11 -1 -20 -8
-19 -15 -56 6 -82 48 -19 31 -49 62 -59 62 -3 0 -3 -21 2 -47z"/>
<path d="M6608 13079 c-88 -60 -154 -149 -157 -211 -2 -30 28 -48 79 -48 62 0
123 44 159 114 27 52 32 126 12 164 -16 29 -26 27 -93 -19z"/>
<path d="M9490 13045 c0 -18 -12 -19 -28 -3 -9 9 -12 7 -12 -12 0 -66 63 -190
95 -190 23 0 38 73 25 120 -16 60 -80 128 -80 85z"/>
<path d="M6138 12947 c-84 -64 -114 -151 -68 -197 25 -25 41 -25 90 0 50 25
88 82 96 141 13 92 -38 117 -118 56z"/>
<path d="M5737 12816 c-55 -34 -132 -110 -147 -145 -25 -63 18 -119 83 -107
43 8 103 58 129 109 35 68 25 168 -16 167 -6 0 -28 -11 -49 -24z"/>
<path d="M5285 12681 c-40 -25 -61 -49 -80 -95 -21 -51 -7 -92 36 -101 78 -17
175 115 140 191 -13 30 -53 32 -96 5z"/>
<path d="M4878 12586 c-8 -7 -28 -21 -46 -30 -38 -20 -88 -85 -97 -127 -9 -41
11 -85 46 -99 81 -34 190 69 192 180 1 35 -5 55 -18 70 -21 23 -57 26 -77 6z"/>
<path d="M4412 12445 c-59 -50 -79 -160 -32 -185 36 -20 77 -11 113 23 46 43
63 103 43 152 -14 32 -19 35 -55 35 -28 0 -48 -8 -69 -25z"/>
<path d="M11093 12436 c-72 -24 -94 -41 -43 -33 19 3 51 8 70 12 39 6 40 6
-67 -43 -53 -24 -71 -52 -32 -52 11 0 63 10 115 22 97 22 105 29 84 69 -8 15
-17 18 -37 13 -15 -4 -24 -3 -20 3 3 5 3 14 -1 19 -5 8 -27 4 -69 -10z"/>
<path d="M11325 12173 c-22 -8 -67 -16 -100 -17 -64 -4 -134 -26 -103 -33 9
-2 33 0 53 6 19 5 33 6 30 1 -2 -4 -25 -13 -50 -19 -25 -6 -45 -16 -45 -22 0
-11 26 -8 64 7 9 3 16 2 16 -3 0 -5 -17 -14 -37 -19 -21 -5 -36 -13 -33 -19 3
-5 7 -9 10 -9 40 12 71 14 66 6 -3 -5 -22 -13 -41 -16 -19 -4 -35 -11 -35 -16
0 -13 32 -13 64 0 44 17 28 0 -21 -23 -67 -30 -33 -32 101 -4 67 13 111 27
114 36 3 9 -2 11 -17 7 -11 -3 -30 -9 -41 -12 -11 -3 -20 -1 -20 4 0 6 17 14
37 19 20 4 39 15 41 22 3 10 0 12 -14 6 -11 -4 -39 -9 -64 -11 l-45 -4 50 15
c28 9 56 18 63 20 7 3 11 9 8 14 -3 5 -22 3 -43 -5 -45 -16 -63 -17 -63 -5 0
5 23 14 50 21 28 7 53 17 57 22 4 7 -4 8 -23 3 -72 -19 -93 -22 -104 -15 -6 4
17 13 52 20 63 13 87 24 71 33 -4 2 -26 -2 -48 -10z"/>
<path d="M1824 11550 c-56 -22 -107 -128 -86 -175 16 -35 34 -40 76 -20 40 19
71 63 81 115 5 28 2 42 -15 63 -23 29 -25 30 -56 17z"/>
<path d="M11470 11528 c-44 -13 -46 -14 -29 -35 13 -16 13 -16 -10 -1 -23 16
-26 16 -70 -7 -97 -50 -97 -54 6 -55 52 0 95 -4 98 -10 4 -6 3 -10 -2 -9 -4 1
-41 1 -82 0 -61 -1 -72 -3 -62 -15 8 -10 34 -13 99 -11 151 4 147 4 134 17 -9
9 -21 9 -50 0 -54 -16 -64 -15 -22 4 58 26 65 31 64 43 -1 6 -2 29 -2 51 -2
44 -8 46 -72 28z"/>
<path d="M14123 11513 c-13 -2 -23 -8 -23 -12 0 -5 -20 -14 -45 -21 -31 -9
-60 -28 -90 -59 -56 -57 -73 -105 -57 -159 18 -58 44 -76 108 -77 30 0 54 3
54 8 0 4 12 7 27 7 41 0 109 78 122 141 14 63 14 88 1 126 -10 27 -48 56 -68
52 -4 -1 -17 -4 -29 -6z"/>
<path d="M6625 11300 c-355 -96 -411 -112 -419 -120 -20 -20 3 -17 124 14 490
129 460 120 460 137 0 13 -6 11 -165 -31z"/>
<path d="M1078 11298 c-51 -44 -78 -141 -43 -154 23 -9 84 16 101 41 25 38 33
80 20 106 -15 32 -45 34 -78 7z"/>
<path d="M11770 11274 c-36 -24 -66 -48 -68 -52 -2 -8 130 -102 142 -102 7 0
4 190 -3 194 -3 2 -35 -16 -71 -40z"/>
<path d="M11664 11196 c-30 -17 -263 -196 -270 -208 -4 -6 1 -8 12 -5 11 3
107 27 214 52 107 26 199 51 203 55 4 4 -25 32 -66 62 -63 48 -76 54 -93 44z"/>
<path d="M11525 11175 c-49 -12 -152 -38 -227 -56 -76 -18 -138 -36 -138 -39
0 -9 154 -110 168 -110 12 0 287 204 297 220 8 13 7 13 -100 -15z"/>
<path d="M8047 11102 c-29 -18 -49 -69 -51 -134 0 -30 6 -44 33 -72 l34 -36
34 21 c18 11 37 18 42 14 6 -3 22 15 36 40 33 56 28 91 -22 146 -39 43 -62 47
-106 21z"/>
<path d="M404 11100 c-51 -20 -98 -141 -60 -156 20 -8 69 12 91 36 26 29 31
92 8 111 -12 12 -25 14 -39 9z"/>
<path d="M11083 11042 c-38 -40 -73 -99 -73 -123 0 -13 7 -19 23 -19 30 0 237
52 237 59 -1 6 -134 104 -150 109 -6 2 -22 -10 -37 -26z"/>
<path d="M7040 10843 c0 -4 -10 -13 -22 -18 -27 -12 -36 -40 -37 -115 -1 -52
2 -59 37 -93 l37 -37 53 51 c37 35 52 57 52 76 0 29 -33 105 -53 121 -17 15
-67 26 -67 15z"/>
<path d="M6040 10583 c-26 -13 -38 -53 -39 -138 -1 -35 5 -47 39 -80 l40 -39
30 29 c16 16 30 25 30 19 0 -5 9 2 20 16 28 36 25 84 -10 145 -33 58 -64 71
-110 48z"/>
<path d="M11427 10372 c-26 -26 -47 -51 -47 -55 0 -9 116 -64 145 -69 16 -2
19 2 16 22 -4 33 -51 150 -60 150 -4 0 -28 -22 -54 -48z"/>
<path d="M5122 10339 c-48 -10 -55 -20 -64 -95 -8 -73 2 -103 48 -137 28 -21
43 -15 92 36 32 33 33 36 22 77 -6 23 -23 61 -38 84 -25 40 -29 42 -60 35z"/>
<path d="M12899 10270 c-31 -4 -62 -11 -69 -15 -16 -10 -6 -72 22 -130 12 -24
19 -48 15 -52 -4 -3 -23 1 -42 10 -35 17 -36 17 -45 -9 -6 -14 -10 -27 -10
-29 0 -3 -11 -29 -25 -59 -23 -49 -54 -83 -67 -71 -2 3 -32 7 -66 10 -70 5
-82 -5 -82 -69 0 -58 -21 -45 -95 57 -27 37 -50 67 -51 67 -1 0 0 -29 2 -65 3
-36 3 -65 0 -65 -2 0 -13 16 -25 35 -21 36 -59 51 -46 18 4 -10 8 -95 10 -189
3 -178 11 -214 45 -214 28 0 29 8 14 80 -16 80 -10 90 11 17 31 -108 74 -102
54 7 -6 37 -9 69 -6 72 3 3 14 -14 25 -39 11 -24 25 -47 31 -51 14 -9 94 13
103 27 4 7 4 23 1 37 -6 24 -5 24 24 -7 22 -23 36 -30 51 -26 13 3 28 -1 37
-11 9 -9 26 -16 38 -16 50 0 331 59 357 75 16 10 2 113 -21 153 -23 39 -24 81
-5 108 11 14 12 22 3 33 -7 8 -17 37 -23 65 -13 62 -49 193 -63 229 -11 29
-12 29 -102 17z"/>
<path d="M11847 9987 c4 -6 -3 -8 -15 -5 -14 4 -20 2 -16 -4 4 -6 -2 -8 -16
-3 -16 5 -20 4 -15 -5 6 -9 1 -10 -16 -5 -20 7 -22 6 -12 -6 10 -12 8 -14 -11
-14 -12 1 -29 5 -37 10 -12 8 -12 6 -1 -8 8 -9 11 -21 7 -27 -4 -6 1 -18 11
-25 18 -13 17 -14 -6 -9 -24 6 -24 5 5 -15 32 -22 28 -28 -8 -10 -16 7 -14 3
8 -16 l30 -27 -35 17 -35 16 35 -31 35 -31 -32 16 c-29 14 -33 14 -33 1 0 -18
25 -33 64 -40 28 -5 60 -25 52 -33 -2 -2 -13 1 -25 8 -24 16 -37 7 -26 -18 5
-10 8 -21 7 -25 -1 -4 7 -12 18 -18 11 -6 18 -15 15 -20 -3 -5 -1 -11 5 -15 6
-4 7 -11 4 -17 -4 -6 -2 -8 3 -5 10 6 25 -15 27 -38 1 -5 11 -10 23 -9 14 0
19 -4 15 -14 -3 -10 0 -13 9 -10 14 5 15 31 5 96 -3 17 -1 32 4 32 10 0 33
-36 36 -58 1 -7 9 -24 18 -37 14 -21 20 -23 48 -14 58 16 62 34 37 162 -13 71
-10 78 11 22 l18 -50 1 46 c1 30 -4 51 -14 59 -8 7 -15 9 -15 4 0 -4 -6 1 -14
11 -8 11 -12 25 -9 32 4 9 0 11 -11 7 -11 -4 -16 -1 -16 11 0 9 5 13 11 9 8
-4 9 4 5 27 -5 28 -4 30 4 12 12 -28 20 -30 13 -3 -3 11 0 26 6 33 8 11 3 17
-25 30 -19 10 -32 12 -28 6 4 -8 0 -8 -15 0 -26 14 -113 12 -104 -2z"/>
<path d="M12245 9855 c9 -126 35 -357 42 -368 10 -17 26 0 29 32 2 19 0 95 -5
170 -9 135 -27 208 -58 241 -13 13 -14 4 -8 -75z"/>
<path d="M9890 9818 c0 -20 -1 -20 -18 -5 -26 24 -69 22 -77 -4 -8 -23 2 -108
15 -128 11 -19 40 -6 40 19 0 24 8 25 30 5 34 -31 50 -9 50 66 0 62 -2 69 -20
69 -14 0 -20 -7 -20 -22z"/>
<path d="M11737 9562 c-2 -9 7 -32 21 -50 23 -32 23 -34 6 -53 -9 -10 -15 -21
-13 -23 5 -4 180 32 187 39 12 12 -42 53 -86 64 -67 16 -65 16 -89 29 -18 10
-22 9 -26 -6z"/>
<path d="M9720 9525 c-107 -33 -190 -154 -190 -275 0 -80 26 -137 84 -184 35
-28 44 -31 113 -31 92 -1 134 16 187 75 55 61 80 122 79 195 -2 108 -63 200
-150 224 -48 14 -67 13 -123 -4z"/>
<path d="M11543 9522 c-23 -18 -76 -129 -65 -136 14 -8 187 31 187 42 0 7 -22
27 -48 46 -26 19 -43 36 -36 38 8 3 7 7 -3 15 -10 9 -18 8 -35 -5z"/>
<path d="M9211 9355 c-28 -13 -51 -31 -51 -38 0 -8 -6 -17 -14 -20 -7 -3 -24
-26 -36 -52 -18 -37 -21 -59 -18 -115 4 -73 20 -105 69 -143 31 -23 102 -33
132 -20 12 6 35 16 51 22 16 7 26 15 22 18 -3 3 4 11 16 17 32 16 78 97 78
137 0 13 -4 18 -12 13 -8 -5 -9 -2 -4 12 19 48 17 79 -6 113 -50 75 -139 96
-227 56z"/>
<path d="M11675 9309 c-16 -5 -56 -13 -88 -19 -34 -7 -55 -16 -51 -22 3 -5 14
-8 24 -5 10 2 24 0 31 -5 11 -8 10 -9 -3 -4 -10 3 -25 -2 -33 -11 -15 -14 -14
-17 5 -30 18 -12 30 -12 98 2 42 8 101 20 130 26 l54 11 -37 34 c-39 36 -69
41 -130 23z"/>
<path d="M11968 9298 c-16 -5 -28 -13 -28 -16 0 -8 83 -62 95 -62 4 0 20 -9
36 -21 16 -11 35 -22 42 -23 7 -1 17 -4 22 -8 13 -8 145 22 145 33 0 5 11 9
24 9 28 0 41 14 30 32 -5 7 -8 23 -8 37 -1 30 -26 41 -26 12 0 -12 -6 -21 -15
-21 -8 0 -15 7 -15 15 0 18 -14 19 -41 4 -12 -6 -18 -17 -15 -25 3 -8 1 -14
-5 -14 -6 0 -7 -4 -4 -10 3 -5 5 -10 3 -10 -2 0 -21 -6 -43 -14 -37 -13 -41
-13 -72 11 -18 14 -39 23 -47 20 -9 -4 -17 2 -21 14 -4 10 -14 19 -23 20 -12
0 -11 3 6 9 47 20 10 27 -40 8z"/>
<path d="M9689 8635 c-3 -2 -73 -19 -156 -36 l-152 -32 16 -24 c14 -22 83 -67
70 -46 -18 29 85 70 233 93 l81 13 -41 18 c-47 21 -45 21 -51 14z"/>
<path d="M9799 8541 c-34 -5 -53 -15 -72 -36 -15 -17 -27 -33 -27 -37 -1 -18
58 -32 76 -17 6 5 52 16 100 24 49 9 97 20 107 26 10 5 27 7 38 4 10 -4 29 -3
40 0 43 14 -5 25 -116 26 -71 0 -103 3 -90 9 23 10 10 10 -56 1z"/>
<path d="M5327 8472 c-125 -90 -153 -293 -48 -355 14 -8 44 -18 66 -21 34 -6
47 -2 87 23 65 41 99 104 106 191 4 61 2 74 -22 114 -23 39 -34 48 -78 61 -66
19 -66 19 -111 -13z"/>
<path d="M10600 8471 c-21 -6 -25 -13 -23 -40 2 -43 33 -85 65 -89 14 -2 75
13 135 32 128 42 134 42 158 16 20 -22 40 -26 50 -10 10 17 -12 37 -78 70 -57
28 -67 30 -171 29 -61 -1 -122 -4 -136 -8z"/>
<path d="M4864 8406 c-96 -42 -164 -148 -164 -256 0 -167 150 -224 278 -106
56 52 77 101 77 186 0 86 -19 130 -75 167 -37 26 -71 28 -116 9z"/>
<path d="M8630 8402 c-8 -3 -64 -15 -124 -26 -60 -12 -111 -26 -113 -32 -2 -5
3 -19 11 -29 13 -18 18 -19 58 -7 75 22 192 50 233 57 l40 7 -35 19 c-37 19
-46 21 -70 11z"/>
<path d="M8109 8371 c-48 -12 -74 -25 -92 -46 -24 -28 -33 -45 -23 -45 14 0
281 52 284 55 4 3 -94 56 -100 54 -2 0 -33 -8 -69 -18z"/>
<path d="M8825 8290 c-104 -9 -141 -18 -157 -37 -11 -13 -7 -20 26 -48 26 -21
37 -38 33 -48 -3 -9 0 -20 7 -26 8 -7 48 8 139 54 134 66 149 69 204 35 21
-14 66 -9 117 13 l29 13 -28 18 c-20 13 -30 15 -38 7 -17 -17 -67 -13 -116 9
-45 21 -77 22 -216 10z"/>
<path d="M4425 8248 c-73 -42 -117 -169 -84 -242 12 -26 84 -66 119 -66 23 0
91 67 117 115 11 18 17 54 17 92 1 54 -2 66 -25 88 -37 37 -93 42 -144 13z"/>
<path d="M9540 8241 c-69 -10 -76 -20 -53 -81 4 -8 5 -21 4 -27 -2 -17 -10
-19 108 26 113 43 127 52 118 75 -7 17 -85 20 -177 7z"/>
<path d="M7166 8181 c-3 -5 -26 -14 -50 -20 -34 -8 -51 -21 -75 -53 -17 -23
-29 -43 -27 -45 7 -7 286 60 286 69 0 10 -97 58 -117 58 -6 0 -14 -4 -17 -9z"/>
<path d="M7785 8101 c-39 -8 -42 -31 -10 -69 14 -16 25 -35 25 -41 0 -15 40
-14 90 4 23 8 55 15 71 15 16 0 29 4 29 8 0 17 94 10 133 -10 35 -17 45 -18
91 -7 77 18 82 23 49 44 -18 12 -49 19 -88 20 -33 1 -78 9 -100 18 -43 16
-238 29 -290 18z"/>
<path d="M8530 8040 c-52 -16 -120 -30 -150 -30 -52 -1 -54 -2 -35 -16 14 -11
33 -14 60 -10 58 7 118 -22 140 -68 12 -25 14 -40 7 -49 -10 -12 -9 -53 4
-160 6 -54 8 -58 29 -53 12 3 91 19 176 35 272 53 367 74 380 81 10 7 10 14
-1 39 -14 35 -14 35 -130 21 -133 -16 -140 -18 -140 -45 0 -20 -6 -23 -42 -27
-84 -9 -98 9 -98 119 0 37 -5 95 -11 130 l-11 63 -42 -1 c-22 0 -84 -14 -136
-29z"/>
<path d="M7618 7959 c-32 -4 -69 -16 -83 -25 -24 -16 -71 -81 -63 -89 2 -2 37
-8 78 -13 46 -6 90 -18 113 -32 l38 -23 -27 -28 c-15 -16 -28 -39 -29 -50 -1
-12 -9 -25 -18 -30 -18 -10 -32 -63 -22 -80 5 -7 18 1 38 22 16 18 48 43 71
54 l41 20 -2 85 c-5 198 -4 188 -27 194 -25 7 -32 6 -108 -5z"/>
<path d="M5276 7813 c-53 -8 -76 -31 -76 -74 l0 -39 55 0 c64 0 205 20 205 29
0 19 -123 94 -147 90 -4 -1 -21 -4 -37 -6z"/>
<path d="M9030 5490 c-91 -16 -239 -40 -330 -53 -234 -36 -410 -71 -377 -75
47 -6 292 28 467 63 91 19 222 43 292 55 70 11 134 23 143 26 8 4 17 -1 21
-10 9 -23 23 -20 17 4 -7 26 -23 25 -233 -10z"/>
<path d="M8761 5099 c-30 -5 -57 -12 -60 -15 -3 -3 -4 -27 -3 -54 2 -56 -9
-63 -49 -31 l-24 19 28 26 c39 36 35 48 -15 42 -236 -30 -537 -81 -548 -93 -3
-3 1 -8 8 -10 6 -3 12 -11 12 -18 0 -25 57 -62 105 -68 26 -4 64 -16 85 -28
31 -18 41 -19 59 -9 13 6 25 9 29 6 3 -3 0 -6 -6 -6 -7 0 -12 -4 -12 -10 0
-19 32 -10 37 10 4 16 13 20 47 19 22 -1 33 -3 24 -6 -29 -7 -23 -60 10 -93
21 -20 43 -30 78 -35 27 -3 63 -12 79 -20 67 -32 105 -43 123 -38 11 2 40 -5
65 -16 26 -12 72 -25 104 -30 32 -5 82 -18 112 -29 29 -12 75 -22 102 -23 27
-2 49 -6 49 -11 0 -4 5 -8 11 -8 8 0 10 22 5 78 -9 105 -17 143 -27 136 -5 -3
-19 4 -31 15 -12 12 -53 40 -92 62 -39 23 -73 43 -75 45 -2 2 4 22 13 44 11
29 13 46 7 59 -16 29 -78 71 -104 71 -14 0 -30 7 -37 15 -14 17 -29 17 -109 4z"/>
<path d="M7517 4410 c4 -14 0 -20 -11 -20 -13 0 -16 -11 -16 -54 0 -75 -14
-108 -43 -104 -20 3 -23 11 -31 81 -5 42 -12 77 -17 77 -18 0 -70 -75 -84
-122 -21 -72 -19 -125 9 -185 40 -84 121 -126 203 -104 51 14 124 91 141 149
16 53 15 155 -2 196 -23 55 -81 106 -120 106 -29 0 -33 -3 -29 -20z"/>
<path d="M5925 4196 c-77 -34 -137 -138 -137 -236 0 -167 154 -266 270 -173
109 86 127 279 35 376 -44 45 -63 32 -63 -43 0 -73 -30 -112 -59 -76 -6 7 -14
40 -17 73 -6 55 -5 61 17 77 21 15 22 16 4 16 -11 -1 -33 -7 -50 -14z"/>
<path d="M4488 3990 c-149 -80 -175 -327 -43 -404 58 -34 102 -33 152 3 56 40
81 75 99 139 18 61 14 128 -10 186 -27 65 -36 43 -36 -89 0 -135 -6 -149 -50
-125 -20 11 -21 18 -19 158 l1 147 -28 2 c-16 2 -45 -6 -66 -17z"/>
<path d="M1238 3440 c-73 -39 -128 -151 -128 -261 0 -51 3 -61 31 -89 72 -72
134 -73 201 -3 49 52 69 96 75 164 16 172 -60 252 -179 189z"/>
<path d="M455 3327 c-30 -17 -48 -39 -74 -90 -61 -118 -52 -232 21 -277 76
-46 152 -11 204 95 23 49 26 63 23 145 -4 89 -5 93 -37 121 -40 36 -81 38
-137 6z"/>
<path d="M6467 2746 c-58 -21 -145 -93 -182 -150 -57 -89 -78 -166 -73 -271 3
-75 9 -100 33 -149 55 -111 184 -188 316 -190 266 -4 416 375 250 632 -41 62
-94 108 -150 128 -47 17 -146 17 -194 0z"/>
<path d="M4852 2545 c-142 -66 -243 -252 -229 -423 6 -82 53 -179 106 -221
114 -91 240 -115 339 -65 207 103 250 479 76 658 -77 79 -190 99 -292 51z"/>
<path d="M3373 2396 c-188 -59 -313 -345 -236 -538 19 -48 115 -137 184 -172
141 -70 283 -1 356 174 25 58 27 77 28 185 0 114 -2 123 -31 185 -41 87 -78
128 -139 156 -56 27 -100 29 -162 10z"/>
<path d="M9504 2070 c10 -223 58 -799 151 -1820 23 -247 23 -250 46 -250 25 0
26 -15 -16 457 -19 219 -40 450 -45 513 -64 724 -119 1234 -137 1250 -3 3 -3
-65 1 -150z"/>
<path d="M9606 1895 c5 -101 51 -667 74 -900 5 -55 24 -262 42 -460 18 -198
34 -352 36 -342 3 17 -3 102 -49 667 -32 401 -90 1031 -99 1090 -7 42 -8 29
-4 -55z"/>
<path d="M2858 1877 c-59 -88 -89 -154 -48 -106 18 22 19 22 20 5 0 -11 -7
-27 -16 -37 -29 -32 -12 -47 43 -38 68 11 105 11 98 -1 -3 -5 0 -10 8 -10 19
0 47 43 47 70 0 41 -79 170 -105 170 -7 0 -28 -24 -47 -53z"/>
<path d="M437 1204 c-3 -3 -49 -10 -102 -14 -66 -5 -100 -11 -106 -21 -5 -8
-9 -47 -9 -88 l0 -74 83 6 c45 4 94 7 108 7 27 0 27 1 34 91 7 87 5 106 -8 93z"/>
</g>
</svg>
